/* XPM */
static char *cf0f770f8ab74668f1320f87ec98aa1bjvRyx37fNhnlSwBJ[] = {
/* columns rows colors chars-per-pixel */
"64 64 245 2 ",
"   c #9A3E2E",
".  c #974936",
"X  c #9A4937",
"o  c #A8462F",
"O  c #A84834",
"+  c #A54E3B",
"@  c #AB4C3B",
"#  c #B74A35",
"$  c #B34D3C",
"%  c #A95237",
"&  c #A5533D",
"*  c #AC533D",
"=  c #AE5A3D",
"-  c #B2523D",
";  c #BA523E",
":  c #B55A3E",
">  c #C94A37",
",  c #CF4C37",
"<  c #C75239",
"1  c #ED693B",
"2  c #9D5445",
"3  c #93594A",
"4  c #9A5C4C",
"5  c #AB4F42",
"6  c #A55544",
"7  c #AB5443",
"8  c #A55B46",
"9  c #AC5B44",
"0  c #A95749",
"q  c #A45C4B",
"w  c #AB5C4A",
"e  c #B45443",
"r  c #B35A45",
"t  c #BB5A44",
"y  c #BB5748",
"u  c #B35D4B",
"i  c #A95E51",
"p  c #B35F51",
"a  c #9E6654",
"s  c #9D6C57",
"d  c #A4644D",
"f  c #AB6649",
"g  c #AB634C",
"h  c #B76148",
"j  c #B3634C",
"k  c #A56553",
"l  c #AB6552",
"z  c #A46B54",
"x  c #AB6A54",
"c  c #A76558",
"v  c #A46C5B",
"b  c #AA6D59",
"n  c #B36452",
"m  c #BB6253",
"M  c #B66B57",
"N  c #BB6A53",
"B  c #A77155",
"V  c #A4725B",
"C  c #AA725C",
"Z  c #B77258",
"A  c #9E7563",
"S  c #A46E60",
"D  c #A67563",
"F  c #BB7864",
"G  c #B37669",
"H  c #C75A45",
"J  c #D35B4B",
"K  c #C8634B",
"L  c #DB6448",
"P  c #D8724F",
"I  c #C86B58",
"U  c #D66857",
"Y  c #DB6B54",
"T  c #DC6C5B",
"R  c #CA725E",
"E  c #DA7352",
"W  c #D5735A",
"Q  c #DB735B",
"!  c #D67858",
"~  c #DE7B5D",
"^  c #E56B48",
"/  c #E4744B",
"(  c #E16B55",
")  c #E37A53",
"_  c #E57854",
"`  c #E1745A",
"'  c #E27C5B",
"]  c #D16E61",
"[  c #C97866",
"{  c #D47463",
"}  c #DB7564",
"|  c #D57B63",
" . c #DC7C65",
".. c #D77669",
"X. c #D47D6C",
"o. c #DB7C6B",
"O. c #D87E71",
"+. c #E27D63",
"@. c #E07E6A",
"#. c #B6836D",
"$. c #B88874",
"%. c #BE927F",
"&. c #DD825D",
"*. c #DF885F",
"=. c #E48255",
"-. c #E3835C",
";. c #E98459",
":. c #E58A5E",
">. c #C8836A",
",. c #D58464",
"<. c #DC8365",
"1. c #DE8964",
"2. c #D5836D",
"3. c #DC846C",
"4. c #D68A6D",
"5. c #DC8B6C",
"6. c #DB9068",
"7. c #DD926D",
"8. c #C48A73",
"9. c #C78976",
"0. c #CC8C7B",
"q. c #D48573",
"w. c #DB8473",
"e. c #D48B74",
"r. c #DB8C73",
"t. c #D4867A",
"y. c #DB8679",
"u. c #D58C7A",
"i. c #DA8D7B",
"p. c #C9967B",
"a. c #CE937C",
"s. c #D59375",
"d. c #DC9374",
"f. c #D59A76",
"g. c #DC9B75",
"h. c #D5937B",
"j. c #DB947B",
"k. c #D69B7C",
"l. c #DC9B7C",
"z. c #E28363",
"x. c #E38B64",
"c. c #E88C63",
"v. c #E1846A",
"b. c #E28C6B",
"n. c #E49366",
"m. c #E3936C",
"M. c #E99468",
"N. c #E4996E",
"B. c #E28677",
"V. c #E28C72",
"C. c #E19473",
"Z. c #E29B74",
"A. c #E99874",
"S. c #E1937B",
"D. c #E29C7B",
"F. c #D5A27D",
"G. c #DCA27C",
"H. c #DDAA7F",
"J. c #E3A275",
"K. c #E2A37C",
"L. c #E9A278",
"P. c #E3A97D",
"I. c #D58E81",
"U. c #DB8D81",
"Y. c #CD9484",
"T. c #CD9A84",
"R. c #CA9989",
"E. c #CD9D8C",
"W. c #D49583",
"Q. c #DA9582",
"!. c #D49B83",
"~. c #DB9C83",
"^. c #D5968A",
"/. c #DA958A",
"(. c #D49C8A",
"). c #DB9C8B",
"_. c #CC9E90",
"`. c #D89D91",
"'. c #E29784",
"]. c #E19C84",
"[. c #E19D90",
"{. c #CDA38E",
"}. c #CCA98E",
"|. c #D5A384",
" X c #DCA384",
".X c #D5AA86",
"XX c #DCAB84",
"oX c #D4A48B",
"OX c #DBA38B",
"+X c #D4AB8B",
"@X c #DBAB8B",
"#X c #DCB187",
"$X c #D4B38E",
"%X c #DDB28C",
"&X c #DDB88D",
"*X c #CDA593",
"=X c #CDAB94",
"-X c #CBA69A",
";X c #CCAB9B",
":X c #D4A492",
">X c #DBA491",
",X c #D3AB92",
"<X c #DAAB92",
"1X c #D9A59A",
"2X c #D3AD9A",
"3X c #DAAC99",
"4X c #CFB798",
"5X c #CEB39C",
"6X c #D4B393",
"7X c #DCB392",
"8X c #D5BA95",
"9X c #DDBC94",
"0X c #D3B49B",
"qX c #DBB49B",
"wX c #D3BB9B",
"eX c #DCBA9A",
"rX c #E2A483",
"tX c #E2AB83",
"yX c #E1A48B",
"uX c #E2AC8A",
"iX c #E2B286",
"pX c #E2B38C",
"aX c #E2AD94",
"sX c #E1AD9B",
"dX c #E3B293",
"fX c #E2BB92",
"gX c #E1B49C",
"hX c #E2B99B",
"jX c #E8BB9C",
"kX c #CDADA0",
"lX c #D6AFA0",
"zX c #CDB7A6",
"xX c #CDB9A5",
"cX c #D7B6A4",
"vX c #D2BBA2",
"bX c #DCBBA2",
"nX c #E1BDA4",
"mX c #D8C39C",
"MX c #E3C49B",
"NX c #D5C3A4",
"BX c #D9C7A7",
"VX c #D8C7B1",
"CX c #D7CAB1",
"ZX c #E2C3A3",
"AX c #E2C9A8",
/* pixels */
"> @.v.V.+.` z.^ _ j.~  .<.r.~ &.^ 5.5.5.OX> }  .c.S.].C.5.D.g.A.Q.D.V.j.d.b.v.S.]./.H 9.W.Q.u.r.Q.j. X@X X~.<X<XD.b.g.H.%XD.@Xj.",
"e ( v.<.k.k.,.-._ C.~ ' 1.d.7./ c.,.~ <.~.u j.].b.M.Q.C.Z.C.C.~.b.5.+.r.d.r.r.v.v.r.I 8.*X!.T.oXY.!.+X6X}.6X0X,XwXmXmXmXmX8X%XqX",
"j <.7.7.7.,Xf.P 7.1.*.) g.' ) J.n.G.) *.).e +.).K.Z.l. Xk.g.OXd.Q.5.5.j.r.<.r.5.|.j.G %.zXxX=XR.=Xa.}.=X}.=X4X=XNXwXmXmXmX8XwXvX",
"j <.1./ &.5.@X1.6.:.=.1.g.-.7.) =.6.6.*.7X9 l.g.l.Z.S.k.d.<.d.5. .2.2.j.oX~ r.u.r.<X$.Y.{.*X*X{.R.E.=X{.*X}.5X;X=XwXCXmX#XmX8X6X",
"t -.n.=.6.5.5.:.) P 1.*.6.-.F.G.G.*.6.n.5.* Q.r.g.d.3.k.j.r.3.r.Q 2.W r.~.r.2.i.w.S.[ >.!.a.R.{.R.{.;X0.=X!.!.=X}.|.8X%XH.#X8XwX",
"u -.:.=.6.x.b.-.7.1.-.7.g.' P F.6.&.G.iXgX7 3.w.i.r.o.Y 2.3.j.i.W.h.<.5.<.d.4.3.w.j.#.#.T.}.q.-XT.{.=X*XT.Y.*X(.+X+Xs..X.X.X|.bX",
"f m.G.N.n.-.g.c.Z.x.-.c.6.x.Z.6..X&.N.N.dX6 +.U.y.i.i.Y ( O.i.O.w.I.W.o.r.j.j.i.u.(.#.[ h.E.0.Y.T.*X^.R.;X%.kXE.!.,X!.|.,X0X|.oX",
". % % = = % : % % % % % * + * 9 - ; < : H o 2 y $ ; # # O 5 $ O + 5 $ O % % * = 5 e $ o @ 7 7 & 9 k 6 + q 2 q 0 6 k u r 6 w u < ",
"I.4.5.e.2...o.{ i./.] ] O.U.U.O.O.O.O.T U.O.U.O.o.2.i.U.O.i.U.U.H ~.q.r.~.~.!.).j.l.@X@X|..X|.|.+Xf.r.!.bX< 4.| k.j.b.s.k.k.i.D.",
"2.u.h.h.X.q.| 2.4.<.$.[ L O.v.@.( T y.T O.O...@.O...U X.} o.v.>Xp 0XOX+X$XF.7.F.F..X$X+X$X.X8XG.vX!.wXf.bX9 a.{.e.k.,.s.k.g.4.e.",
"q.q.0.q.{ X.2.s.f.F.#.] w.Q @.3.o.T ....J ..O.} X.X.X.} w.3.v.i.: ,. Xs.$X.X6X.X.X6X.X$XF.6.H.$X,XwXvXh.,Xe R F..X,.4X%.f.F.5.e.",
"q.0.{ W [ X.e.4.k.+X8.U  .j.b.w.} +.o.i.T @.B.@.i.o.` U } 3.+.].F >.f..X.X|.+X+XF.l.f.G.F.f.&.+X|.,XoX.XVXm :XR 0.P s.f.F.f.s.e.",
"0.{.k.e.W W.s.k.l.G.8.{ v.b. .j.} ] /.u.o.w.o.v.b.V.' | } 3.@.'.F wX|.F..Xk..X,X+XF.8X$X6X8X.X.X+X}.+X.XdXr !.+X=Xp.s.|.f.f.s.4.",
"4.+X!.f.E e.r.k.l.d.#.{ ` <.w.i.} T ..w.r.i.^ b.+.Q ( i.} ` ' Q.N +X|..X}.|..X|.F.F.f.f.+XwX6X+X4X$XmXmXBXh d.|.+X|.|.!..XF.s.p.",
"2.2.4X5.4.!.4.|..XD.F R ` r. .i.O.} } o.@.b.V.w.v. .' Q.o.@.v.~.M f.|.4X4X+X+X+X+X|.6X|.+XwX}..X$X$X8X8XCXg s.|.F.f.k.Y.T.F.4.9.",
"9 X 8 9 @ * @ * = : # X # * - $ 0 @ @ 7 $ 7 u x + # - 7 e - # < . 6 g f f * w C b d O * = g 9 g f f B f Z O + 9 9 9 9 $ * * * 7 ",
"H Y Y.O.t.w.r.<.d.k.h.r.{  .q.).2.O.U t.).< /.W.^.(.).oXOXoX6X@X:X^.0X,X:XR.^.).W.lX[ ,.]. X~.OXK.XXOX<XOX>X>X).D.~.oXQ.~. XdX'.",
"b | Y T | 2.<.<.&.d.r.~ 2.2.(.Y.{ X. .2.!.7 ).:X^.:XkX0XwXwXmX6X*X*XoXzX:X-XY.Y._.cX$.p.eX#X#XfX#XfXpX9X XC.z.D.Z.rXd. XXXpXtXgX",
"h z.L ..w.2.i.2.h.f.d.| e.<.e.h...t.2.2.~.q e.-XR.(.0XoX0X6XwX6X:XY.xXxX_.;X_.;X*X-X$.{.XX9XP.9X&XfXfXP.P.9Xm.rXpX%X@X7XH.fXtX7X",
"F G.E U ..Q y.<.w.g.:XQ i.d.d.<.3.h.X.2.).u  .Y.kX;X5XxX,X>X6XOX5XxX*XVX(.=X;X;X;X,X$.p.K.tXiX&XiXMXAXMXfXfXrX XMXiXP.wX@XiXtXgX",
"9 g.OX<.e.Q 2.w.<.1.w.X.u. .~ <.2.} X. .OXw q.(.E.*X*X5X;XCXNXOX}.vX0XxXoX5X=X{.zX2X$.{.@X%XC.rXiXiXfXpXmXMXZ.@XiXiXiXH.6.P.iXiX",
"N 7.g.k.s.T r.2.X.~ 2.t.t.<.<.i.3.4.q.X.W.l vXxXW.=X=X5XzXxX5XvX,X}.5XNXzX*X-X_.-XkX[ K r.C.' D.P.#X&XtX%X7XD.N.iXMXmXH.#XJ.tXpX",
"C 1.b.<.d.o.<.j.r.w...t.u.2.s.h.e.e.w.} ^.+ 2XCXxXoX=XzX=X:XkX0X-X5X-X=XkXzXkX-XkXlX$.E.OX3X~.3.l.<XpXA.@X%X7XXXN.N.MXfX#XiXfX@X",
"  X u @ O 7 O @ @ @ q @ + & 7 * & + 5 @ y # 4 C b 0 w k a u v D i w l C S i i 0 i 0 < X l w X O 7 c C g n b x v Z % f x z Z x , ",
"3X<XOXOX].OX].Q.].yX] o.v.' _ v.].D.j.].C.D.d.j.r.z.S.1.V.C.~.Q.K ).i.Q.U.o.w.Q.i.@X~.OXl.l.s.j.~.l.i.~.qX< j.(.F.XXL.K.aX@X@XdX",
"tXK.K.K.rXuXyX].rXc.9.F.g.g.m.m.n.m.M.:.;.:.;.m.:.x.l.c.b.m.M.uXZ OXi.j.u.oX!.W.!.Z.Z.b.l.OX@XOX<.d.5.!.3Xe j.(.g. XuXrXuXpXrXtX",
"rXrXK.rXuXpXpXA.rXS.9.! <.-./ -.b.m.G.m.x.b.' C.b.5.m.c.A.Z.Z.D.H <XZ.l.~.k.!.d.~.4.Q.h.1.j.i.!.~.u.!.!.2Xe Q.j.j.rXc.tX@XK.uXL.",
"K.dXA.tXtXP.A.L.Z.pXa.,.rXA.z._ _ =.m.XXD.m.c.c.b.5.v.Y ' l.g.'.K <Xg.k.k.j.!.d.r.l..Xr.OXh.e.q.W.h.j.i.OXe i.~.V.D.A.tXaX;.uXtX",
"*.K.tXK.uXA.dXtXL.MX$.~ C.c.V.b.:.1 n.M.M.n.D.^ ;.A.m.-.^ m.C.D.K OX+Xf.!.s.!.).5..Xk.d.j.h.!.5.k.j.d.j.>XH (.~.rXuXP.pXiXA.tXM.",
" XZ.x.uXuXL.m.L.iXdX0.2.g.x.b.' D.;.;.c.J.M.P.:.D.A.A.Z.:.:.A.S.I G. XOX~.d.k. XoX<.D.OX<.r.d.E E d.d.3.S.e Q.D.rXuXM.pXK.pXdXuX",
"].OXOXOX@XrXaXOX].rX8.| z.C.~.z.].b.:.m.J.K.tXm.D.Z.m.C.m.l.b.S.Z OXXX|.).3.oXj.|. X@XQ.~.i.~.OX<.~.:XyXqX$ ~.).[.uXm.rX7XaXZXnX",
"D x c S l l b - g j u X d 8 6 7 c x j l x z g v x B 9 = q g @ M   f 8 g k & d g g V 9 g q A q D v q w D y o q i c g n w b l l j ",
"< S.j.j.Q.h.j.m.m.L.rXpX@XG.G.K.S.j./ j.sX, ( r.x.1.Z.M.c.Z.-.x.D.J.@XN.C.m.d.d.D.uXR X.j.j.l.g.j.d.4.r.~.~.(.h.4.~.+.).D. XrXV.",
"N h.OX,.D.5. XC.Z.D.K.Z.m.9XL.rXQ.>Xr.j.].7 Y ' b.Z.x.=.m.Z.Z.n.6.G.XXG.J.M.P.:.L.mX$.[ k.l.+Xl. X Xd.g.f.|.OXoXoX,Xk.k.Q.g. XuX",
"M r..Xa.j.+Xl. XC.7.6.XX%Xn.G.OXoXoXR.R.i.; L L ! x.G.-.F.d.g.G.G.F.n.m.c.J.L.c.M.P.#.,. XG.8XXXXX8X6X+X6X$Xk.|.p.|.f.s.+Xl.@X+X",
"Z ~.~.<.<.Q.l. XeX7.@Xd.g.d.k.oXW.q.W.W.3X8 OXj.~ 4.g.7.L &.~ E &.|.N.K.N.J.H.#X7.iX$.9.' ;.Z.g.#XH..XXXG.XX.X<X.XOX!.f.f.k.%X<X",
"Z l.~.5.g.d. Xd.XXg.~. X7.l.c.k.W.o.q.j.ZXw Y b.7.l.N.D.-. .v.-.*./ N.7.N.N.m.-.c.K.$.}. XJ.8X#XH.XXXXG.G.#X@X X~.5..Xk.l.7.$XqX",
"Z j.m.-.XXm.b.7. XC.<XrX~.%Xm.oX!.u.u.h.gX9  .-.1.5.g. X<.q.).r.5.&.N.1.m.g.m.C.C.Z.$.}.&XXX#X&X#X#X$X#XXX#X%X.Xl.d..X@Xl.OXXX7X",
"Z D.m.x.#Xc.m.G.%XD.n.M.m.D.D.k.r.e.r.~.9X9 <.r.~ e.<.oXT.] h.q.g.Z.n.1.5.7.l.b.1.m.#.p.@XXX X#XH..XXXXX#X.Xg.8XBXG.6XG.%X&XG.,X",
"o % x = D V V V V C h C g z V w d k S V Z o & q 2 d d k c i a a 2 8 g g q d d d a f : 3 A f x l s V z B V V B z z a D f B V x K ",
"h.Q.v.i.3.j.r.w.j.yX] X.t.Q.r.S.i.<.} b.)  XyX~.j.j.j. XC.( ).i.K U.U./.w.>Xv.Q.OXaX'.cXgX].i.'.~.~.S.[.qX, V.b.OX X).V.w.i.w./.",
":Xr.D.@X} l.OX3.3.v.9.X.^.e.s.k.!.|.oX6Xf.~.~.f.|.oX.X).,X<.1.Q.5 O.w.`.W.~.>X).<XuXhX XuX7XOXj.OXb.j.OXgXj %Xn.C.D.~.@X~.V.r.d.",
").G.iXG.XXXXS.v.V.' F !.:X,X+X,Xh.f.h.k.4.s..Xf.f.k.f.|.@Xl.r.~.H w.j.Q.d.i.OX,Xg. X@XL.tXd.OX~.j.>X@Xj.qX= 9XN.m.D.C.z.@Xb.S.l.",
"' K.Z.m.7.P.rXrXqXbXF 5. X Xd.!. Xk.d.d. X5.d.r..X Xg.G.@Xb.C. X; '.z.,.l. .(.OXhXiX+XZ.mXyX5.~.l.V.j.V.bXr &XP.tXG.G.d.~.r.j.b.",
"<X_ b.j. .x.@Xg.C.[.0.4.H.G.F.|..Xd.OX1.k.d.@Xx.G.l.G.N.%XtXZ.uXK >XyX XrX<.j. X&XjXK.M.D.uX3XyX@X<X~.<.<Xr tXP.P.N.Z.V.v.d.1. X",
"<X XD.j. Xd.C.D.l.S.F 7.G.H.g. X@Xl.g.~ g.j.G.b.G.G.G.H.XXG.l.l.F Q.Q.@XBXQ.Q.l.K.9XiXyXyX<.@X:Xr.dXXXV.nX: K.P.iXG.rX@Xr.| r.OX",
"j.qXg.d.Z. X X Xj.'.%.e..X@XG.XX X<XNXd.OXj.<XG.G.@XXXZ.XX Xg. X; j.r.j.D.S.U.'.uXpXrX@XVX>X].@XV.bXeX@XnX7 C.D.K.7XG. XQ. X! ~ ",
"2 v g d D x v M i b < X q v V k 9 q v z n p i x f g z d f k d H X 7 $ r g S S c D Z K n F l x M u g x h F o q n % d g b q j & w ",
"H ).OXaXaXOX>X>X`.>XyX>XQ.Q.D.aX~.~.>X~.sX; @.3.v.w.w.j.[.).w.@.y.y.i.o.V.r.j.b.V.sXR X.^.r.S.j.k.j.r.S.S.).Q.(.u.i./.(.o.j.3X'.",
"Z ~.OX).XX@X).k.OX<X.XqXeX XuXK.pXl.D. XgXt +.w.i.i...i.3.w.).( X.q.r.o.w.r.r.b.C.aXt.>.!.~.!.h.!.j.OXk.!.W.(.|.4.W.!.s.h.Q.i.2X",
"N OX.X@X6X<X.Xx.7XqXOXG.f.BXc.7X9XZX@XrXZXe @.<.w.w.y.o.t...t.o.o.O.y.O.y.y.o.Q.i.].$.9.+Xh.!.j.!.W.h.k.u.r.!.j.i.e.h.!.r.k.i.k.",
"#.@X7X.XbXqXNX~.@X,XOX<XeX XdXpXrXhXZX9XjXt ( o.i./.y.o.y.} y...O.q.i.O.} t.o.y.r.i.N p.!.j.!.!.).h.W.!.e.!.<.~.<.t.r. .h.!.3.<X",
"#.+XOX@X6X<X~.oX<XvX@Xl.7X7XpX7XuX7X9X9XdXy B.v.w.i.( } } w.L y.O.O.} w.y.X.I.w.v.S.[ 8.7.h.d.r.k.d.(.(.e.i.r.oX!.u.0.Q.<.oXr.OX",
"#.qX Xj.0X,X>Xj.,XOXyXg..X9XiX%XiXuX@XrXAX$ +.~.S.Q.o.i.r.j.o.o.i.v.i.B.o.T O.i.i.sX8.>.h.<.d.k.~.f.!.OXh.W.!.oXh.(.,X!.5.|.j.i.",
"C  X XZ.<X2X).Q.:X3.).2X|.@X@XXX9X8X7XwXZX7 V.i.v.).w.} U.i.y.i.@.U.r.r.O...y.y.v.).G >.!.<.d.d.+X X:XoX,Xh.^.*Xs.h.| i.3.2.h.OX",
". a m d H m e M K y 7 m p n f h N N N m I O 2 e 7 l 0 0 w e u e 0 0 q e e 5 @ 6 0 m # X u 9 & + 6 b l l g n w p e j * l w u u H ",
"y.U./.`.`.1XU./.B.`.[ T y.3.v.V.b.v.v.' v.w.r.z.S.j.j.g.g.b.aX]., j.!.Q.l.k.~.Q.oXD.yX<X3X~.XX@XXXrXuXK.aX> U.O.).).@.'./././.`.",
"y.^.^.I./.2XQ.Q.:X1X9.I u.s.s.j.f.h.k.d.r.e.e.~ 5.j.1.5.m.C.m.yXH h.oX!.j..Xp.@X6X$XoX=X+X.X4X8X$X$XXXXXnXe U.E._.`.(.(.oX>X!.^.",
"I.-Xt.w.`.oX:X2X1X`.0.{ 2.r.5.r.3.e.OXj.,X2.t.| s.e.e.f.k.j.g.>X$.d.k.f.,Xh.s.!.,X=X+X+X.X+X6X.X.X+X6X|.7X$ t.O._.I.2X`.y.).Q.i.",
"Q.cXu.h.).3XOX3.).Q.9.W 3.2.-.4.5.y.!.2.0.W.e.4.h.e.h.s.k.4.k. X>..Xk.$XCX+X+XF.,X6X}.+X,X+X+X|.|..X}.!.2Xe t.u.^.^.E.1X).).~.S.",
"OX0X,X!.@Xv. X<XbXOXF ! +.} 6.d.e.o.q.2.| u.q.s.h.r.p.2.s.4.7.7.>.NX8X%X.X8X|..X$X.XT.T.{.f.|.k.h.h.T.!.-Xe Q.(.:X!.:XoXqXbX~./.",
"OXQ.:XQ.eX].Z.C.@XqX0.W i.+.<.j.2.3.e.!.[ s.<.q.u.2.s.W |.r.v. XF $X7X8X$X.X X$X+X0.W.oX4.f.,XoXT.oXh.{.3Xe >X X~. X~.).k.3XbXj.",
" XQ.).<X<X~.eX@X].).$.[ i.).5.5.j.} Q r.<.^ 3.h.3.X.r.Q  .' c.@Xh ~.6X$XoX.Xk..X0Xh.t.^.W.s.).|.(.u.T.:XcXe oXOX).,X>Xj.oXOXOX<X",
"6 @ u u w u n n n t H 3 6 8 h w 8 - + 9 w X 9 0 7 q q X O * # < o u n q i w 7 0 0 + & X 0 & w w w w w v y O 5 y y e m u e e n w "
};
