/* XPM */
static char *_644564548060[] = {
/* columns rows colors chars-per-pixel */
"64 64 52 1 ",
"  c #181716",
". c #1D1C1B",
"X c #201E1E",
"o c #23211F",
"O c #252322",
"+ c #292626",
"@ c #2B2827",
"# c #2D2B2A",
"$ c #312E2D",
"% c #33302F",
"& c #2F2F30",
"* c #353332",
"= c #393635",
"- c #3B3837",
"; c #3D3B3A",
": c #413E3D",
"> c #44413E",
", c #48433F",
"< c #403F40",
"1 c #454242",
"2 c #4A4644",
"3 c #4C4946",
"4 c #494748",
"5 c #4D4B4A",
"6 c #514B47",
"7 c #524E4C",
"8 c #55514E",
"9 c #59534F",
"0 c #4D4E50",
"q c #555352",
"w c #5A5654",
"e c #5D5856",
"r c #585758",
"t c #5D5B5A",
"y c #615A56",
"u c #625D5B",
"i c #65615E",
"p c #69625E",
"a c #625F60",
"s c #666261",
"d c #6A6563",
"f c #6D6866",
"g c #676768",
"h c #6A6768",
"j c #6E6A69",
"k c #706763",
"l c #716A66",
"z c #716D6B",
"x c #75706E",
"c c #7A716C",
"v c #747171",
"b c #797574",
/* pixels */
"#14414<<41111<4<<4<<44<*$$=4<69$X:wetaaaaar4X#5qtu7O:3:277wq8771",
";rrrrr0rtttr0tr0yaeraayw*X4w6y9$@pllhzhttggr+*7sgfu*ew6ydad7tut5",
"5rqrttrettree8qyaaewauy9:O7eyyy%+ppkfzsuaaar#;wtfsp*932ylauqtis8",
"0rrssaeiireeueweyyyyuky9<+yy9yp%opyldfaaaryq&;tudfs*:,9ysdaqirt0",
"qrttgstpduytptwikuuaayy9<#yyydk*@updyuduter7$;uadfd+2yyueggetqi7",
"0eirusuyputuiitiakuyauay<+wydak%$pppeauuyuww*<kkffj$,uueujiitei5",
"ee9iu9iuttpuuuiiaauuyaky6@yy9yk*=kkduuuuaaw9=:alxcd#2yyydspiuei5",
"qe8iiw8weudpiyiykakuaaku6#w9uya::kkuuffaaaww*:akxvy$2wykdigueet5",
"qyyyuuyyyuuuduuaalkuyauu5#ueupy==kpiyddupdpw*:ylxfi$3epipgxpiee2",
"5ayyuuuupuutapduuaauwyku2+ypipe=+euyudfddffw@:uaigp$6ypepjffi8y7",
"<uyauyyuuppuyudduueywyau:Oepiyy:o,9yuuppfsst@:aaidg%8piiphgpiyu0",
"O:69663366569yw758662<22=@29997%X@=,552375q1X=yrety$-6yeeai8753>",
"++&$###$$==+@+*===$#$$++@$@+@%$@%OXoOOooO+@+$$;;*#&*+@@&%*%$@@+.",
"qdayeaewwww<X:wywu98wwwq2+%28wq3895562267758eewye5-#,wwywy965ew,",
"tdzjvjfduuaa%whdduuupudlu$3epdguypupdewyuuyeeeeyus7@5pjpii9eqizs",
"thzzjdddllda=8ukkuddppfdu=7udgpppiupuppdyuutuaudffw#qpfpiywewtgt",
"ujjshzgpxfds=8fptupussude=7epidgdsdaydddududuuuufuw$6adauyyw9esq",
"ejbsjjfffgdi=qspyypuprut8=7eytutuhdadduyuukuuukuddy$9ajjkywyweu0",
"tujfduffffdu-wdgiupuutwee-8siyutashfhdeyuuaaukfdluw*wajjhkuuwer5",
"dllfsdfdgjsy=qpietutsueut-0qttstaasdaseeuuauudkjkuy=wjdjauakar73",
"ixffpsdufffi=wdttiutasasw*0r8etqrasaauywyuaakkjllyu-qhakffgghst5",
"thpddfdddfxi;tueaitiartar*88qrqrqrataueeyudludjddue=rdkjfssjhha0",
"ihpdhhffiyi8=eruteraertar*,0rq00qqrqudruyudfdauuddy=eddkfsgzgggq",
"szfddjzlpii8+0wtrqqtrqqw0@>0q0rqq88wuauayuudzaduuaw+rjaaufjhgss5",
"8ittyuiyaet> %175514>>55=.$-;40855117ttrweewew0772* ;8q8577qqqq&",
"$=%%%@#@$%*@#+&%&*&##$#++@OXooO#*;*==*##$%***=%$#@@@OOOOOOoOOXO.",
"pfdpt%.;,55883325w8524,,55543,$X*rrrwqX*6eyy9auewue98656555121;#",
"flggf,$5ttyiteeiidiyww7eeiutte9$;hfsta*2adklddclpzflpuuiuppw8q51",
"fjjzz2:wyw9iyeidpsfpe9w98pdtusi;1hvzua=5dkuufxlkzffdteiuiiieqqw3",
"pxvvv0;teeeetepfpfkpyw69epauueu;2shvvs$5akddfzzzlkfpeupptwit87e5",
"dvzzb7:uypiiipfjxllpiwwpiiisiuu::fjjva*3dakjxxcvdfdpyppfiii88683",
"dzjzv0:ipplfipxzxllfy9iiphgptiu=:fzzvs*7auufdflzdsllpidhfpe96865",
"ajajz9:yjdfkudklckllfweidvzpite-4jvbvs*8ddfllsslppliippjjii9855,",
"ddzfz6:ykfkduudjbccji69iujpjsst-5hlvxs-5slflfsllpldiilfpppe85,65",
"plzkc3:9dxkaupdljllju39lsg9iigt:1jvzhi*8sllpsslpfpfuppiifpi9636,",
"uuklx2:kdfdjkkufjzgp839fiuqtitt>5zjjxp*8idsilpipkpuwyiyippe9766,",
"ypkku<*kdlauaudklzi999yiijqewtu23gdzlj*8iitisdiyiyr8euipiuur833,",
"yupy9:+<uauueyuuyue68we7wtw9277$3dptatO%68ewye88963357qe9q71>5,*",
"$:%%%@+O@**%%*=*%=%@@=%$*$$#+X+@=====%#+@%***=**=%$##+++#%###@oo",
"%9,,<9779y<X :qwuw@ -,77523524-@@-25e38ww78ww88877333334%.#11,57",
",pieifpiduaq+wddjp-$58ippgiiiiq$@8wipiw8w9usditstistsgdji@*05070",
"7kpiifpifhse;7dddp>=3wtydzjpuew=$wyiiiiuuusgfddgttuittifi;-54550",
",pdhgxzffhaa;9uuip<=6qqwgjfpeuu-#tytiutsgtspgsggstiwutpzi;-57535",
"2upddffgddjt=yfddg1-8899ivpiiut,%yfiituuitssyigsggiwrtigg>-8725,",
"3tidffdzxfgq*yldjj1%38qyflpuyyt,%upjiiiiytgieuisipi9yipii;-80583",
"7yiffdpplda8#wjssf1%w88tiitwwr8,;ipgiiuuettitsiiigpruyiyr-=wq0w,",
"4ipgdppfchs7#ejfuf1$qq8yyy73wyt3-tidiggueertsgggggduetyit*-wr0q1",
"5ddfffppjza3Oesusd,@wreuy9e68ti7-eufdsuueetiisgspiiiayidi*-wwqr7",
"2agiglzddlg7+yilsf;@8reteei8wyi,=yfdatueturaggiipupipdfie&-errr5",
"5ssdlgpljzj,Oyugps;O5rre5re8tiu%#qiaqsututtquiiiiupgpgdirO-wqrq5",
"-450ttuitr3$@7ydut*O%25q5,,678,$@%14,50ww8558r8qeqewweq8=.*ur854",
"<*&Ooo@#@oX+@o+#OOO$oXOO$#@#$#+#*O.XO +$+Oo+o@+&%$%%&&@Xo@O#@O+*",
"-*%$%-*:35887,>:->,55,:&O@-rutr-%9eit3++=>::,>>,,37qqwq0qq5;=%OO",
"&0rtrywuipggiliueeittrw8%Otfggz7$jdpgi@>igdzgpiitipipiaupttgtrt1",
";atritiiipzzdgiudgiiteww>Xggigi,$jiidi@0zpjzzzgtipgpziiiftisittr",
"0arrttssiiixfitusgggirer,@ggigg,%jpppi$7fiiigzigzfpsjiiypstwtrqr",
"qq8qaaitttigdgfisgiigtwe,&gvjjg1&zfpdu&3fiigxliiljfgxauussrutqwt",
"qr8rtsaaadpdfgiiijiwteww1$gvjxz4#fpdpt$,idijzjsgxxxggdidudpueqwr",
"qrrarsgusguyfjitpf9988872&ijxvv1%ffdur$,tiiijjjjjxxzpdjdyddstswt",
"4qrrttttiipudjpupgiie997:$egvvz<%pidiu$<tirusaszjvvlgitedffgssw7",
"4tt0rttssuigpgfigxljttr0:#rgzzz<-gggjg$:ttrtsasjfgfhuerwdpgaggs0",
"-qtrtrtsuwutgstdiifititr1@tjgjv<=gfjvd#1tq0qqqtgdspiu80wyydtrig3",
"&qrtr07rqrqrqqw88rr778rq<@tgegg;=jvgvs@;qqq0qqwidppier76wttqqw0=",
"+;11;----=;;;-;--:;;*--<@@q8wrq@=itrr0@&<>2>,44505552:&-;;;;=*##"
};
