/* XPM */
static char *_0dc254b4d6c4142c9c2fb460c93b44fMm0sRC4hLduERoZI[] = {
/* columns rows colors chars-per-pixel */
"64 64 238 2 ",
"   c #25639F",
".  c #396A9E",
"X  c #2967A9",
"o  c #376CAA",
"O  c #3472AE",
"+  c #3B75AD",
"@  c #3D79AD",
"#  c #2A6DB8",
"$  c #366FB6",
"%  c #2A73B9",
"&  c #3574B5",
"*  c #3B74B5",
"=  c #357AB7",
"-  c #3D7AB4",
";  c #3473BC",
":  c #3B75BA",
">  c #3C7BBB",
",  c #48709A",
"<  c #587E9E",
"1  c #466FA4",
"2  c #4776A7",
"3  c #437AAD",
"4  c #4A7BAC",
"5  c #537EA4",
"6  c #527DAC",
"7  c #587CA9",
"8  c #4474B3",
"9  c #4A75B4",
"0  c #437BB4",
"q  c #4B7CB4",
"w  c #4376BA",
"e  c #437CBB",
"r  c #4A7DBC",
"t  c #527DB3",
"y  c #567BB9",
"u  c #627EB0",
"i  c #2B78C9",
"p  c #357CC3",
"a  c #3B7CC2",
"s  c #347CCC",
"d  c #3978C8",
"f  c #2F7AD1",
"g  c #427CC1",
"h  c #427DCB",
"j  c #4B7DCB",
"k  c #3D81B8",
"l  c #4D81AA",
"z  c #5583A4",
"x  c #5C85A4",
"c  c #5482AD",
"v  c #5B83AC",
"b  c #5A8AAD",
"n  c #4C82B3",
"m  c #4584B9",
"M  c #4A82BA",
"N  c #5484B3",
"B  c #5A83B4",
"V  c #5C8AB4",
"C  c #5483BA",
"Z  c #5888BB",
"A  c #6385A5",
"S  c #6787A9",
"D  c #6487B6",
"F  c #6A94BC",
"G  c #769AB9",
"H  c #3A82C3",
"J  c #3A80C5",
"K  c #4B81C2",
"L  c #4884C9",
"P  c #5886C5",
"I  c #5E96CB",
"U  c #4988DD",
"Y  c #558ED5",
"T  c #4795DB",
"R  c #5998D4",
"E  c #5493DD",
"W  c #5C93DB",
"Q  c #559BDC",
"!  c #5C9BDC",
"~  c #678CC6",
"^  c #6897C9",
"/  c #6C9CCC",
"(  c #779BC5",
")  c #759BCC",
"_  c #648CD3",
"`  c #6394D5",
"'  c #6D97D6",
"]  c #649BD5",
"[  c #6C9DD5",
"{  c #6395DA",
"}  c #649BDB",
"|  c #6C9CDA",
" . c #739DD5",
".. c #7B9DD3",
"X. c #789BD6",
"o. c #729DD8",
"O. c #5DA3DA",
"+. c #5AA4D9",
"@. c #6DA3CE",
"#. c #7AA4C3",
"$. c #75A5CC",
"%. c #7CA4CC",
"&. c #74ABCE",
"*. c #7BACCD",
"=. c #7DB2CD",
"-. c #65A4D5",
";. c #6CA4D4",
":. c #65AAD6",
">. c #6CAAD5",
",. c #64A3DC",
"<. c #6BA4DB",
"1. c #65ACDB",
"2. c #6CABDB",
"3. c #74A4D5",
"4. c #7BA4D4",
"5. c #74ACD5",
"6. c #7BACD3",
"7. c #73A4D9",
"8. c #7AA4D9",
"9. c #74ACDA",
"0. c #7BACD9",
"q. c #6AB3DC",
"w. c #6DB2DD",
"e. c #75B2D5",
"r. c #7CB3D4",
"t. c #7DBAD5",
"y. c #74B3DB",
"u. c #7CB3DA",
"i. c #75BBDB",
"p. c #7CBBDA",
"a. c #499AE2",
"s. c #579CE2",
"d. c #5CA4E2",
"f. c #58A7E4",
"g. c #61A3E1",
"h. c #63ABE2",
"j. c #69ACE1",
"k. c #72AEE1",
"l. c #66B4E2",
"z. c #6BB4E1",
"x. c #74B4E1",
"c. c #77B7E2",
"v. c #7DC1DB",
"b. c #7AC0E1",
"n. c #849CBD",
"m. c #8FADBD",
"M. c #9CB3BD",
"N. c #A6BFBF",
"B. c #A9C5BF",
"V. c #B7CCBE",
"C. c #BBD0BC",
"Z. c #839EC7",
"A. c #839DD2",
"S. c #85AAC6",
"D. c #83A4CD",
"F. c #8BA5CE",
"G. c #84ACCD",
"H. c #8BACCD",
"J. c #96A9CA",
"K. c #93ADCD",
"L. c #9AADCC",
"P. c #8DB3C6",
"I. c #84B3CD",
"U. c #8CB4CC",
"Y. c #87BBCC",
"T. c #8BBBCD",
"R. c #94B6C4",
"E. c #9AB6C5",
"W. c #94BAC6",
"Q. c #9CBBC5",
"!. c #93B4CD",
"~. c #9BB4CC",
"^. c #93BBCC",
"/. c #9BBBCB",
"(. c #83A5D3",
"). c #8BA5D2",
"_. c #84ACD3",
"`. c #8AACD2",
"'. c #85ADDA",
"]. c #94ACD2",
"[. c #9BADD1",
"{. c #84B3D4",
"}. c #8BB4D2",
"|. c #84BBD4",
" X c #8BBBD3",
".X c #82B4DA",
"XX c #8AB4DA",
"oX c #83BCDB",
"OX c #8BBCDA",
"+X c #93B3D2",
"@X c #9BB4D3",
"#X c #93BCD2",
"$X c #9BBBD2",
"%X c #93BAD9",
"&X c #A4B7C6",
"*X c #A3BCC4",
"=X c #ABBEC4",
"-X c #A2B4CC",
";X c #A3BBCC",
":X c #ABBDCB",
">X c #ACB8CD",
",X c #A4B7D1",
"<X c #A1BCD3",
"1X c #81B9E1",
"2X c #8EC3CE",
"3X c #97C0C6",
"4X c #9DC3C5",
"5X c #94C3CC",
"6X c #9BC2CC",
"7X c #97CBCC",
"8X c #9DCCCC",
"9X c #85C2D5",
"0X c #8CC3D4",
"qX c #8CCBD5",
"wX c #84C3DA",
"eX c #8CC2D9",
"rX c #8DCAD8",
"tX c #94C4D3",
"yX c #9BC4D4",
"uX c #94CBD3",
"iX c #9CCAD3",
"pX c #94C2D8",
"aX c #99C9D8",
"sX c #A3C4C5",
"dX c #ABC3C3",
"fX c #A5C9C5",
"gX c #ACCAC4",
"hX c #A3C2CA",
"jX c #ABC4CB",
"kX c #A7CBCC",
"lX c #B7CAC6",
"zX c #B1C3CC",
"xX c #A6D1C9",
"cX c #B9D1CE",
"vX c #A2C6D3",
"bX c #AAC8D1",
"nX c #B4C5D3",
"mX c #C3D1C7",
/* pixels */
"d X...D.[ ] %.` ^ _.[ [ 3.6.[ @.R &.4.4.~.f ' ..%.P.L.H.D.U.H.!.P.H.4.G._.%.4.H.~.L.L ) 6._.(.7._._.^.W.#X}.~.;XH.G.P.Q.sXU.;X`.",
"> W <.>.{.{.-.-.+.r.-.-.>.6.e.R &.-.:.;.[.g _.!.S.*.U.{.I.I.I.U.6.6.;.6._.6.6.6.3.4.Y $.OXc.u.oXc.u.eXuXwXtXyX0XkXxXxX8XxX6XtXjX",
"m ,.e.q.w.#Xw.+.e.>.>.O.r.-.+.Y.=.=.+.>.+X> ;.!.^.I.U.!.U.r.T.{.{.3.3._.6.7.5.3.}._.^ >.yXaXeXc.wXz.c.wXb.wXrXeX8XuXxXxXxX7X7XbX",
"m 5.:.+.1.>.^.>.e.:.:.1.t.:.e.+.:.e.q.:.vXJ }.{.T.{.{.{.r.>.0.9.,.<.<._.OX! 9.9.9.<X( 5.oXoX1X1Xc.c.1Xc.b.b.aXeXeX7XxXxXqX8X7X/.",
"K ;.=.+.e.5.e.:.+.+.:.1.5.O.|.|.t.:.e.e.6.p `.5.{.6.7.{.r.5.2.<.! 7.Q y.{.>.,.9.<.`.) / u.x.c.oXz.b.OXj.wXc.c.eX9Xv.uX5X0X2X7XkX",
"m ;.&.:.e.>.e.>.*.>.:.e.r.:.+.|.e.:.9X3XhX: 7.7.0.4.| E <.<._.4.0.6.<.>.5.5.9.2.9._.^ / c.1Xh.c.c.c.oXoXx.x.1Xp.oXeXw.9Xt.9X XbX",
"n I.Y.=.e.:.Y.>.I.5.:.&.r.5.=.*.U.;.=.I.:X: X.`.4.(.(.W W o.(. .7.8.'.| 3.r.r.4.0.`.^ ^ k.XXh.k.c.oXx.0.OX2.%XXXu.OX.XoXeXyXoX}.",
"  + @ k @ = - & * & + + & O * 0 = > m e y # $ g ; a ; ; # * ; # $ p : # O - * > ; * d X ; - k % H m p i > ; e > : n > a - e g h ",
").3.7.k.<.| | { 4.)._ _ | (.A.X.X.X.' _ A.A.A.A. . .(.).o.).).A.d K.4.D.!.!.K.!._.U./.~.^.^.I. X^.6.6.#XnXJ 4.[ U._.6.6.H.H.6.}.",
"d.w.x.k.d.f.s.h.l.2./ ' U 7.3. .W { X.{ X.| } | o.| Y | {  .4.-XL aX|.0X5Xt.e.i.|.9XqXeX2X0X7Xi.iX.XyXc.bX> 5.t.9.p.1.q.|.y.q.j.",
"h.f.h.f.s.f.d.l.y.i.) ` 7.] 7.4.| E | { U | o.| ' [ [ { 7.3.3.F.J f.oXy.qX9XtX9X0XtX9X2Xt.q.9XeXuXaXvXz.yXf R y.oXO.aX&.i.i.d.l.",
"h.j.a.a.s.s.h.1.i.0X( W [ r.4.3.| { | (.s.{ 8.o.(.[ ` E }  .o.[.I f.t.9Xv.v.9XeXt.i.i.t.v.i.+.9Xv.pXOX1XmXL XX+.>.a.q.i.t.i.q.h.",
"j.1Xx.j.a.u.y.|.t. XZ._ 3.6.;.(.' { ).(.[ 4. .3.3.6.] } } 3. .].Z iX0Xt.v.v.9X0X9Xt.tX0XtX7X0XwX9XeX0XwXbXL r.eXtXu.q.oXi.i.1.h.",
"f.pXp.i.a.j.2.p.t.r.( / ] 7.7.4.{ s.| o.4.6.E 5.;.} ! _.[ ` [ ].P v.v.wXwXv.v.i.i.i.i.i.9XuXqXwXuX0XxX8XcXk e.p.wXoXp.i.v.i.l.l.",
"O.1.yX1.1.u.1.t. XU.( Y ! 4.;.4.| { } | <.D.D.4.3.;.] `.X. .6.].Z e.v.qXqX0X0XeXeXv.0Xt.wXuX9X9XqXqXuXuXcXJ 0.i.i.w.y.z.i.i.l.f.",
"> # 0 > & ; & = - m i X ; 2 * * 9 $ $ w * 2 q B $ & : 8 : * * a X k k k k - 0 V Z k & @ - m - m k l b m F # * @ k k ; p > = * - ",
"L W ).o. .4.4.;._.U._.8.] ;.4.H.3.o.W 4.[.s ].`.`.].[.+X!.^././.@X_.:X;X@X].].]._.>X_ ( L.E.!.&XW.M.Q.;X~.L.-X~.U.!.~.`.!.E.>X].",
"Z } E s.} <.<.;.-.e.9.! ,.,.XX7.s.g.s.<.'.> }.%X.XXXyXtX8XvXkXuXoXOX1XaXOX1Xk.k.1XbX) m.fX5X4XfX4XfXsXgX^.{.3.I.U.^.U.U.5XfX3X:X",
"m >.T s.<.<.7.2.0.=.0.s.7.2.9.y.} j.g.g.XXJ 7.XXx.1XiXOXyXtX8X6XOXk.vXvXXXOX1XOX1X%XG M.Q.fX^.fXxXB.fXM.W.fX6.^.sXsX4X6X5XsXW.dX",
"^ I.E T s.s.2.<.5.e.$Xs.7.u.e.<.,.9.g.g.%Xg <.k.%XOXtXvX#X$XtX XaXvXOXbX.XeXOXeX%X%X/ m.^.5XsXfXfXB.mXC.gXgX/.W.gX4X^.kX6X4XsXzX",
"m =. X,.7.! <.<.<.>.2.} k.O.,.,.,.s.g.d.+XL -..Xu.1XOXtXtXcXbXOX%XvXuXvXwXpXpXoXyX%X( M./.6XI.W.4X4XgXB.gXV.I.4X4X4X4X^.&.M.4XsX",
"Z *.|.|.9.! 7.<.| O.,.k.7.,.>.y.<.<.j.g.0.L zXvXk.tXOXpXpXiXyXiXOXoXtXkXyXoXoXx.OXyX^ P G.6.[ Y.2X4XfX3X4XhXY.I.4XV.C.3X3X2XsXN.",
"Z 5.5.>.0.} <._.8.<.} g.j.} y.9.9.j.| } }.; ;XcXiXOXeXvX%XOXaXpXOXyXOXaX%XyXOXOXOX<X( L.~.hXH.7.U.;XhXU.4XhX;X3XI.T.B.fX5X4XB.=X",
"X # e ; o 3 o & * $ 2 O $ * 3 & * O ; 1 g # @ Z C 0 4 n 0 g N B r 0 m N N r t q q w d . 6 8 O o 3 6 S 6 C b c Z b O z x x S v a ",
"&X&X&X~.K.E.L.K.L.L.~ ..%. ./ %.L.E.H.K.G.!.G.P.F.$.F.D.D.H.!.K.P L.`.).). ...).(.~.!.E.!.{.6.}.!.U.6.K.nXd H.+XU.E.R.E.;X&X=X=X",
"Q.Q.W.W.&X*X&X~.E.6.%.P.r.t.=.e.e.=.I.&.$.&.@.6.>.&.Y.*.S.U.I.;XF ^.4.u.k.|.p.u.|.I.U.6.U.^.$X/.;.6.2.{.:Xs _.}.{.W.*XE.B.sXR.*X",
"W.E.E.W.Q.sXsXU.E.P.D.I ;.;.R @.6.=.Y.=.6.&.;.I.*.6.*.5.U.I.I.!.g ;X_.I.{.{.XX0.{.0.{._.3._.9._.XX0.p..X$Xf _._.}.^.G.B.&XR.*XE.",
"&XdXE.&XB.Q.P.W.R.=XF.$.W.U.;.;.;.@.r.^.T.=.3.$.D.%.4.^ -.}.U.K.C /.r. X{.r.{.e.9.t. X9.OX9.9.<.u.9.u.0.~.s _.K.D.!.P.*X=X#.B.Q.",
"$.Q.*XW.*XP.dXM.R.lXZ.] {.6.(.6.&.R &.=.=.=.!.R 3.I.I.@.Q =.I.!.Z  X0Xr..Xe.|.XX>. Xt.9.e.0.{.>.u.r.6.{.~.L ~.!.E.dXQ.B.N.P.Q.S.",
"W.I.&.;X*XE.H.E.*XB.Z.$.r.&.$.;.U.@.&.I.W.Y.W.&.U.P.U.I.&.&.G.K.D }.T.#XXX0.{.}.$X-.{.$X<.0.r.! Q e.6.3.).p H.!.E.*XS.dXE.N.V.N.",
"~.&X-XE.;X/.&X&XE.~.G ) ;.I.K.3.!.D.*.G.Y.^./.G.U.P.G.{.r.U.G.).D #X5XT.{.5. X{.}.^.$X}.}.4.}.%X;.}.$X+X;Xp K.~.~.:XS.E.=X=XlXlX",
"S 7 7 S 7 N v 3 6 6 j . 4 4 2 @ 7 v 5 5 z A 5 x c b 3 3 3 3 + D X l 2 4 c & l q n x 4 q 4 S 4 D N 0 4 S L # 0 t q 4 t 7 v 7 7 7 ",
"L F.H.H.K.H.H.S.S.R.E.N.N.E.E.~.J.K.` H.>Xd _ G.$.&.P.U.S.P.%.%.J.W.N.F.H.*.S.G.P.;X_ ) (.H.G.G.U.I.4.6.].U.!.`.3.U.[ ~.K.~.E.F.",
"Z _.}.;.{.5. X{.{.}.W.P.G.sXW.W.}.~.*.G.!.: W ] _.I.*.-.I.Y.I.=.q.t.2X9XY.=.^.=.W.lXG ( {.{.^.|. X Xt.y.y. XOX X X$Xp.{.{.r.U.;X",
"D 5. X*.{.#Xt. Xr.e.e.2X5Xe.|.|.XXXX_.XX_.s Y T ] 5.#X1.|.e.t.|.W.P.=.=.=.m.Y.*.=.E.G /  X|.7X5X0X8X0X0XqX0Xp.p.q.p.w.y.|.t.0X^.",
"D +XXX;.3._.U.T.jXr.5Xr.{.e.t. Xy.,.'.(.<Xe @X_.! 5.p.p.a 1.O.Q @.R.=.^.=.v.2X3XI.sX( #.-.>.e.|.7XY.0X9Xt.0X0XtX X|.|.y.y.{.7X6X",
"D }.}.5.r.6.#X6.^.{.U.+X6.|.5.{.0.,.<.'.cXg W 5.=.|.*.Y.;.;.;.;.>.Q r.e.v.Y.=.&.&.W.G M.^.Y.fXW.5X2X2X XY.5X5X}.|.5.#X{.XXr.5X;X",
"b I.r.>.^.e.5.r. X=.6XW.U./.e.^.XX9.7.r.bXe ;.-.5.>.{.#X<.7.'.6.e.:.I.>.&.=.=.=.G.I.( dX6X2X7X7X2X5X5X5X0X5X5XtXr.e. X5X|.T. XvX",
"S W.*.&.4X=.=.T.4XU._.=.I.U.{.U.5.4.0.}.jX- ;.2.O.2.,. X_.a.9.7.r.I.=.e.5.5.I.&.5.I.( S.5X2X X5X2X2X5X7X2X2X|.vXlX|.7X|.7X7XY./.",
"X . b - A A A z A S N S 7 < b 4 l q v A S % , 0 @ 3 3 < 5 e 7 2 @ 2 5 4 3 < l < z 5 p , A l z c x z z z b b c z z < S 4 b D x L ",
"H.].4._.3._.(.3._.-X_ ' D.`.).`.D.5.[ *./ E.*X!.`.H._.~.H.` ~.F.j J.F.L...-X..K.-X:XJ.:XzX!.F.L.L.L.J.~.:Xd D.S.E.~.~.D.D.)...J.",
"+X(.U./.[ G.+X3.[ 3.Z.[ _.7.k.y.oX.X|.yX9.p.p.y.|.|.|.|.5X3.7.H.w ' X.].`.}.~.+XsX&XlXE.*XhX+X_.^.4.G.!.nXM sX=.I.U.+XE.}.4.G.(.",
"+XY.4X^.^.6XU.3.6. .( H.$X#X XtXe.p.y.y.y.w.OXr.t.p.y.9X X{.6.!.K X._.}.6._.}./.U.W.*XW.4XG.#X!.}./.$X{.zX0 B.I.I.U.I.;./.6.{.U.",
";.W.U.*.*.W.^./.dXzX~ $.|. Xe.|.{.{.0.u.{.9.5.5. XY.t.|.#X9.{.!.w +X$.@.U.' +X/.lX4XM.U.lXR.3.+X}.4._._.zXk B.5X^.^.T.{.U.6._.3.",
";X;.=._.) *./.I._.~.Z.6.Y.|.|. X^.6.}.9.{.0.^.>.Y.{.I.e.6XtX}./.C /.!.^.!.3.`.^.hXlXW.G.^./.:X!././.}.3.:XH sX4X3XI.I.6.3._.6.U.",
"$XU.{.{.^.*.=.U.}.H.F &.2X2X|.Y.7X{.t.-.t.{.U.e.|. X9X2X2XI.|.U.F `.}./.lX}._.+XW.kXhX/.E.3.~.;X(.jX^.6.zXa E.Y.3X5X/.^.6.] 6. X",
"_.:XI._.U.W.^.^.G.K.n.#. XtX X0X|.$XgXr./.`./. X2X5X5XY.^.^.}.^.d D.6.`.!.H.4.`.*XgXE.~.mX-X!.;XD.lXB.*XlXp D.!.^.sXR.$XU.U.! -.",
"1 A 6 7 S y S B 7 u h o 3 N z c e 3 B 7 q y q V n M n m q z 4 h X 8 * r 6 D u B S D S y D S D 7 q N B C ~ # 5 C @ q r B 3 C 2 q ",
"h ~.~.:X:X~.,X~.[.-X~.-X`.K.!.&X~.K.~.!.>Xd  .4.3.4.4.H.[.!.....X.4.(. .D.D.J.D.S.>X~ ) `.4.D.`.H.G.(.I.`.+X`.`.4.(.`.K.;.`.$X].",
"P  X^.T.^./.}.}.%XhX/.hXjX^.;XT.hX{.U.^.zXg [ 7.4.6.| 4.o.8.+X{ | 7.8.<.3.6.6.6.G.:XZ.G {..X|.u.{.u.|.{.{.u.{.oX2.p.p.0.7.XX0.-X",
"Z W.#X6X6X6X^.>./.hX$X|.Y.lX&.sXgXlX/.^.mXg o.8.8.X.4.| 8.} 8.| | j.8.o.8.8.| _._.K.Z.$. Xy.{.0.XXu.u.u.9.<.{.r.9.0.0..X2.t.9.{.",
"G /.6X#XjXvXgX XT.5X#X$XjXU.jX*X/.gXlXsXjXh Y X.0.`.X.|  .} 8.| o. .8.X.{ 4.o.4.(.F.P #.oXu..X{.{.6.{.u.9.u.<.}.<.3.7.} {..X2.~.",
"G W././.6XyX{.#XtXjX+X XhXhXsXsX4XfXfXgX:Xr 4. .4.(.W { | 3.U (.8.| { 4.(.' '.8.3.].^ ( w.y.0.5.{.r..XXX2.3.<. Xu.9.2..X,. X5.+X",
"G jX}._.6X$X@X0.$X^.$Xr.5XsX4X6X;X;XW./.lXg | U.`.'.X.4.4.6.| | 4.7._.4.' W X.8._.>X) ( u.,.r.{.|.r._.OX'..XXXOXy..X#Xp.2.XXr.4.",
"V E./.}./.#X%X'.#X3.}.<X X6X6X5XkXfXfXdXmXw (.).4.~.4.' `.(.(.)...).4.4.[ ' 8.(. .!.( ^ {.,.0.e.#XOX^.#X$X0.u.OXz.k.f.9.<.<.0.+X",
"X c y t y y w u y 9 8 y r M n C B C B t ~ % 1 : * y 9 9 9 9 r 9 9 w r e 8 d p 8 : 6 i . M 0 & & * B C n m q e g a r * y e r q h ",
"X.).).].[.,X).].A.[._ _ (.X.%.(.$.$.3.;.3.4.4.3._.H._._._.*.:X[.f `.XX_._.}.`.}.^.`.-X:X-XU.^.Q.!.!.Q.W.;Xf A.A.[.L...J.].[.F.[.",
"'.).'.'..X#X_..X%X,X4.T 2.z.w.i.i.y.{.r.9.7.4.,.5.t.>.e.r.=.I.;Xr 0.|.|.r. X5.5XtXeXv.0XwX9XuXqXqXqX5X5XcXd (.XX'.%X.X{.}.%X{.'.",
"k.[.8.<.].%X#X,X,X].A.` <.9.5.9.<.0.XXu.OXj.g.d.w.2.2.y.t.t.r.$XG 9.i.y.0Xy.q.p.eXtX9X XoXeXeX9XwX9XrXi.yXf 7.| '.0.%X@X(.].`.).",
".XnX8.r.+X-X@X3.+X].D.` 7.-.,.5.7.8.u.h.2.y.j.h.l.j.y.l.y.2.{.+XG tXi.9XcXoXeXp.wXtXeX9XeX0X9X9Xt.oXoXp.<Xs 4.8.'.'.%X@X@X!.}.(.",
"}.<X$X.X/.6.!.E.zX~.~ ] } ,.5.0.0.,.,.d.f.9.h.l.y.j.y.d.2.>.e.6.F xXuX2X|.uX|.9XqXoXp.i.wXw.|.p.y.z.u.u.$Xs `.XX}..X}.$X;XlX`.`.",
"/._.+XXXjX!.{.I./.dXF.^ _.,.>.6.| <.9.'.! 9.<.<.9.,.9.Q OX5.5.!.F tX7X7X7X9X9X0XeX2.u..Xh.y.0XoXi.oXy.oX<Xf $X}.}.^.}.}.XXhXnX_.",
"!.`.!./.:X!.jX/.+X~.n.^ 4.XX5.7.(.,.! 3.<.T 5.9.7.| 9.! ,.] 3.@XC }.qXuXtXoX.X|.tX0.,.XXu.0.{.oX.X9.x.XX<Xs @X~.+X;X/.`.!.#X$X/.",
"1 ; r r r g r Z y r L o : > M m - a % > 0 O : g p > > # ; - & K X r L > r > p a h % % # p % a L g g H C L # * g r e y r a g C w "
};
