/* XPM */
static char *_02e591882eb4bbee6ff6eedb0922b60Mdv7LqYvn3n0NUAv[] = {
/* columns rows colors chars-per-pixel */
"64 64 238 2 ",
"   c #3970AB",
".  c #2E75BC",
"X  c #3976BB",
"o  c #3C7BBD",
"O  c #4676AD",
"+  c #537CAB",
"@  c #4777B4",
"#  c #467DB5",
"$  c #4C7CB5",
"%  c #4276BA",
"&  c #437CBC",
"*  c #4B7DBC",
"=  c #577EB7",
"-  c #537EBC",
";  c #3D7CC2",
":  c #4B7FC3",
">  c #4A7DCB",
",  c #5784AF",
"<  c #5C85AE",
"1  c #5D89AC",
"2  c #4C82B5",
"3  c #4D88B4",
"4  c #4581BB",
"5  c #4D83BC",
"6  c #4E8ABC",
"7  c #5485B4",
"8  c #5A86B4",
"9  c #5589B6",
"0  c #5D8AB5",
"q  c #5383BC",
"w  c #5B85BC",
"e  c #548ABB",
"r  c #5B8BBB",
"t  c #5B92B8",
"y  c #6487AA",
"u  c #648CAC",
"i  c #6B8DAC",
"p  c #708DAD",
"a  c #6D91AC",
"s  c #6485B3",
"d  c #638BB3",
"f  c #6A8BB2",
"g  c #6486BA",
"h  c #638CBC",
"j  c #6A8BB9",
"k  c #748FB9",
"l  c #6C91B1",
"z  c #6691B8",
"x  c #6491BA",
"c  c #769AB9",
"v  c #7EA0BD",
"b  c #3F81C4",
"n  c #4584C3",
"m  c #4686C7",
"M  c #4C84C2",
"N  c #4D89C6",
"B  c #4D85CD",
"V  c #5385C3",
"C  c #5986C3",
"Z  c #548BC3",
"A  c #5B8BC3",
"S  c #5285CA",
"D  c #5489CB",
"F  c #588ACB",
"G  c #5C91C8",
"H  c #4A85D1",
"J  c #598DD5",
"K  c #4D95DC",
"L  c #5D93D5",
"P  c #5899D7",
"I  c #5B93DB",
"U  c #5D9BDB",
"Y  c #658AC6",
"T  c #728DC6",
"R  c #6392C3",
"E  c #689AC7",
"W  c #6C95CC",
"Q  c #6B9ACD",
"!  c #7295C4",
"~  c #749CC4",
"^  c #7899C6",
"/  c #749DCB",
"(  c #7C9DCC",
")  c #638ED3",
"_  c #6594D5",
"`  c #6B97D6",
"'  c #659CD4",
"]  c #6C9CD4",
"[  c #6495DA",
"{  c #649BDA",
"}  c #6C9CD9",
"|  c #7399D4",
" . c #749CD4",
".. c #7C9DD2",
"X. c #719DD9",
"o. c #57A5DB",
"O. c #5EA3DB",
"+. c #6CA1CD",
"@. c #75A1C6",
"#. c #7CA5C5",
"$. c #75A4CD",
"%. c #7CA4CD",
"&. c #75AACE",
"*. c #7CACCD",
"=. c #76B2CE",
"-. c #7EB2CD",
";. c #64A4D6",
":. c #6DA4D3",
">. c #66ABD6",
",. c #6CABD5",
"<. c #64A3DC",
"1. c #6BA4DB",
"2. c #64AADC",
"3. c #6CACDB",
"4. c #74A3D4",
"5. c #7BA4D3",
"6. c #74ABD4",
"7. c #7BACD4",
"8. c #73A4D9",
"9. c #7AA4D9",
"0. c #73ACDA",
"q. c #7BADDA",
"w. c #6DB1D7",
"e. c #6DB1DD",
"r. c #75B2D4",
"t. c #7CB3D5",
"y. c #7DBBD6",
"u. c #74B3DB",
"i. c #7BB3DA",
"p. c #75BADB",
"a. c #7CBBDA",
"s. c #4D9DE5",
"d. c #589CE2",
"f. c #609FE0",
"g. c #57A2E4",
"h. c #5CA4E2",
"j. c #5CA8E4",
"k. c #62A3E1",
"l. c #68A6E0",
"z. c #64ABE2",
"x. c #69ACE0",
"c. c #69B5E2",
"v. c #76B7E1",
"b. c #7EC1DD",
"n. c #7BC0E0",
"m. c #87A8BF",
"M. c #92AEBF",
"N. c #9CB9BF",
"B. c #A0B7BF",
"V. c #A7C4BE",
"C. c #B4CDBE",
"Z. c #839EC7",
"A. c #829CD1",
"S. c #86A2C3",
"D. c #84ACC5",
"F. c #8CADC5",
"G. c #83A4CC",
"H. c #8BA5CC",
"J. c #84ACCD",
"K. c #8BACCC",
"L. c #95ABC9",
"P. c #93ACCB",
"I. c #99ADCB",
"U. c #8DB4C6",
"Y. c #84B3CD",
"T. c #8CB3CD",
"R. c #85BACE",
"E. c #8CBBCC",
"W. c #95B4C5",
"Q. c #9BB5C5",
"!. c #95BAC6",
"~. c #9CBBC5",
"^. c #93B3CC",
"/. c #9BB4CB",
"(. c #94BBCC",
"). c #9BBBCB",
"_. c #83A4D2",
"`. c #8AA6D1",
"'. c #83ACD2",
"]. c #8BACD2",
"[. c #83ADD9",
"{. c #89ABDA",
"}. c #91A6D0",
"|. c #94ABD1",
" X c #83B4D4",
".X c #8BB4D2",
"XX c #84BBD4",
"oX c #8BBBD3",
"OX c #82B5DA",
"+X c #8BB5D8",
"@X c #83BBDB",
"#X c #8BBCDB",
"$X c #94B5D2",
"%X c #99B5D2",
"&X c #93BCD3",
"*X c #9ABBD2",
"=X c #91B9D9",
"-X c #A1B7C6",
";X c #AAB7C7",
":X c #A3BCC3",
">X c #ABBEC4",
",X c #A2B5CB",
"<X c #A3BCCB",
"1X c #AABECB",
"2X c #A3BDD3",
"3X c #81B9E1",
"4X c #8CC2CE",
"5X c #96C0C7",
"6X c #9DC3C5",
"7X c #93C3CC",
"8X c #9CC2CB",
"9X c #95CACE",
"0X c #9CCBCC",
"qX c #85C2D6",
"wX c #8BC3D4",
"eX c #8DC9D4",
"rX c #84C2D9",
"tX c #8BC2D9",
"yX c #94C3D4",
"uX c #9AC4D4",
"iX c #94C9D2",
"pX c #9BCAD2",
"aX c #93C2D8",
"sX c #9AC6D9",
"dX c #A3C4C5",
"fX c #AAC4C4",
"gX c #A3CBC5",
"hX c #ABC9C3",
"jX c #A4C3CB",
"kX c #ACC5CA",
"lX c #A2CCCA",
"zX c #ADCACB",
"xX c #B3C3C3",
"cX c #B3C8C8",
"vX c #B6CDCB",
"bX c #A3D0CA",
"nX c #A3C4D2",
"mX c #A7C7D2",
/* pixels */
"+ T.).oX+X9.9...O d c c c t R S + G.)./.7.T.|.H.O u x z j d A S p L.^.*.Q.~.:X-XO r Z 6 x N Z B o O.z.x.z.z.k...  7 6 5 6 5 ; > ",
"% J..X*X2X%X{._.8 ^.<X).~.(.T.K.f ).$X6.^.R.'.H.+ F.Y.J.F.6.'.G.s Q.T.!.:X~.Q.Q.$ +.*.-.Y.;.' J o >.@X@Xz.z.x.9.# &.+.;.,.;.L ] ",
"- $X$X$X[.9.{.`.h ^.^.).8X(.&XI.s J. X-.U.).T.%.d &.=..X.X+X.XK.f I.J.~.!.!.!./.q 6.XX.XU P I ..7 #X@Xv.g.z.3.,.3 R.&.&.,.,.,...",
"q /..X+Xq.9.{.}.g J..X(.&X(.(.<Xu J. X'.Y.E.(._.7 *.6.6.,.7.$.K.i Q.~.~.-X~.Q.I.* ,.t.1.K d.d.} 5 >.e.z.s.j.x.6.3 =.,.>.O.w.8.5.",
"q /.jX(.$X+X].|.h (.jX8XzX8X*X<Xp T.T.4.*.(.4.4.a E.E.t.4. X XH.f Q.~.:XB.-X~.L.$ 8.0.3.h.k.{  .& 2.g.d.d.g.h.} 4 =.r.,.>.u.t.X.",
"q ^.^.'./.$X=XI.g $X=X*XjX7X(./.j U.D.*.(.(.K.G.i *.t.7. X.X'.G.s !.Q.!.6XdX-XW.7 ' U U U 1.1. .& e.x.0.g.g.h.' 4 ,.,.0.u.oXt.] ",
"w <X.X.X$X$X X`.: %X$X.XjX(..X/.p ^.Y.(.(.U.$X5.a -.&.oXY. XXXD.f Q.U.:XW.-X-XL.$ :.9.1.1.0.,.4.4 ,.3.u.z.g.g.` 5 =.r.r.E.6.+.4.",
"h ).T./.'.*X{.}.g `. X&XoX7..XI.j T.R.T.(.7.4.4.u Y.t.-.(.oXY.J.8 Q.Q.N.!.^.^.L.$ 8.1.1.1.1.1.] 5 p.a.t.e.c.z.[ 4 :.,.,.,.o.;.' ",
"C ^.).1X|.2X%XA.Y .X&XuX(.(.$X/.s G..X.X<X7.9.G.i !.oX(.).XXY.D.d Q.-XQ.!.Q.W.L.$ 4.} 1.,.q.,.*.2  Xy.XXa.u.2...5 *.=.;.w.w.;.' ",
"q I.1X/.|.|.%X}.= 5.(.jX&XjX)./.p H.H.$X<X%.5.P.a T.Y. X Xt.R.F.s L.:XC.-X^.'.L.* 1.<.,.t.t.7.J.e Y.t.XXqXp.3.G.# &.,.o.>.w.6.J.",
"B Z.G.! G.A.9.W = ].$X$X$X(.*XI.C ^ ~ S.^ ! ( W 8 *.).^.oXt.^.Q.w ^ S.G.H.#.%.W $ { <.0.$Xq.0.J.m ! ~ ( %./ ] ) # ;.,.>.;.,.1.:.",
"O R Q Q _ { I ) Y /. XoX*XoXjX/.+ $.*.*.%.J.4.W f D.(.R. XE.U.B.+ Q %.] %.E J.^ % } 1.<.d.O.<. .X J W _ _ _ _ _ & :.=.>.>.;.;.] ",
"& 4.5.1.1.1.3...C E.(.6XjX(.jXK.8 E.XXR.oX.X'.G.8 D..Xt.t.7XU.N.1 +.7.Y.T.4.t.%.# 1.1.8.0.8.<.' & L ' 4. .:.I ` 4 &.r.r.p.t.,.4.",
"* '.1.;.:.0.3.4.A (.0XjX).zX).F.x R.wXR.oX&X0.G.y U.(.XXy.t.~.W.8 *.&.7.Y.:.r./ & <.<.<.0.3.<.] $ 4.8.4.q.' } ..$ ,.>.;.>.;.6.5.",
"5 4.,.0.1.3.e.%.r !.6XjX<XT.).P.d R.R.XXt.oXq.5.d Y.-.6.t.XXW.W., H.7.7.$.' =.Q 2 6.2.2.0.q.i...$ ] 8.4.4.4.4.A.5 &.;.t.r.;.6.:.",
"5 4.q.6.6.6.u.*.r (.6XdXdX6X(./.d E.4XoXXX#Xi.J.8 Y.oX XoXXX(.W.7 $.4.&.:.;.=.%.4 ,.q.<.2.q.0.G.* 5.5.7.9.4.4. .2 *.y.R.>.t.;.+.",
"4 6.1.6.9.3.u.$.x dX6XjX6XjXjX^.w XX(.(.XXi.y.*., 7. Xt.i.+X^.H.y F.J.&.+.7.t.P.5 1.3.<.1.k.d. .- ` { } } } [ | M K.r.y.>.r.6.P ",
"; { 1.1.9.q.u.%.h jX<XdXzXcXT.P.8 (.XXt.i.i. X4.8 4.q.<.3.OX$XH.s J.$.P ,.-.=.L.# 1.1.f.0.1.f.` % [ [ [ [ I [ | M +.>.>.,.-.4.&.",
"X U 9.<.q.OXt.4.h :X6XdXcX6X^.^.f 6X X+Xt.u.XX] 0 8.q.1.[.'.7.Q 8 &.&.=.-.Y.-.D.* ;.l.h.k.k.k.I % _ ` {.X.`  .` 5 *.R.p.w.;.;.5.",
"4 ,.q.k.l.i.7.+.h fX).fXfX(.(.P.d 7.,.6.t.i.aX%.f ]. X{.{.].].D.y D.Y.=.E.Y.*.K.$ { l.k.1.l.1. .M '  ._.9.[ [ [ 5 Y.!.r.,.,.6.7.",
"5 ' { h.x.OXq.:.Y xXcXfXkXcX1X,Xg ^.t. X+Xr.r.$.l ~.nXmX%X_.H.,Xf T.U.R.E.6.&.J.: _.6.{.{.'.'.`.* ` 5.} [ J | A.A Q.).7.&X.XK.I.",
"X P 3.x.v.8.9. .& w C C S C C > = J. Xt.0.e.i.F.# q e C A m M > u U.Y.-.-.*.&.F.* - G D N N N S $ %.5.4.{ { } ..% q q M Z N V B ",
"4 ;.1.z.x.l.0.5.$ ( |  .) ] ] / g ^.R..Xi.XXOX^.+ Q ] ' K.L L Y < !.!.Y.&.:.$.J.7 ^.jX9.<.8.].H.8 %.' 4.9.X.} A.@ | 4.'.J.} 5.| ",
": 6.3.c.z.O.;.] 5 G.K.4.X.9.8./ h XXt.r.6.t.y.K.7 ,.;.4.6.P ' %.u D.*.' 4.J.6.K.x zXnXi.q.@X+X'.g 5.8.4.9.{ } | q 5.8.6. X^.$X/ ",
"; 1.0.e.e.e.0.*.- 5.].5.5.9.5.4.r R.R.R.oXt.@XJ.2 O.,.7.;.' 7.$.0 U.T.$.*.*.6.G.x yXi.i.#X3X X`.$ 4.:.8.5.| X.| : ..5. XR.^.J.%.",
"& } 1.3.z.e.t.J.g H.]._.{.9.5.4.r E.4XXXXXy.XXJ.7 ,.6. X6.6.Y.&.u J.T.J.G.7.&.$.q oX=X@X#X3X+X].& ' ' 5.:.} ]  .: 5.q.t.Y.T.Y.K.",
"* :.0.c.e.3.0.G.7 ( X.{ 9...} %.r E.XXR.t.a.XXJ.7 ,.t.-.t.E.*.D.9 D.T.Y.%.7.Y.S.9 oXtX+XaXsX*X|.M ' { } [ ] L ..* ..8.8. XR.^.L.",
". U U z.e.u.r.*.- | 9.[ } X.5.G.9 R.4Xy.XXXXXXW.1  XoXY.6.,.6.D.3 *.Y.:.;.&.*.%.r *XaXaXnX&XyX.Xq G.6.{ I [ ] A.; J U q. X^.Y.J.",
"X { i.3.u.a.t.J.w G.5.} X.9.9.}.0 E.R.uXoX&X(.J.< *.,.:.P t.R.#.7 &.6.' +.Y.D.G.e =XaXuXyXyX8XT.-  .` { { } }  .o L 1.7.7.XXJ.J.",
"& ;.6.u.u.t.t.G.- ..'.} } } 9.P.u E.E.&Xt. X8.` 5 I X.:.2.i.Y.D.8 Y.&.'.Y.R.K.J.Z oXuXvX*XuXlX^.5 | ' X.9.X.X.( : ] 8.6.6. XY.K.",
"& 4.6.6.t. XY./.w ..X.I X.9.{.( 8 Y.R.R.J.7.6.P.8 9.'.,.;.t.-.#.7 %.T.Y.T.R.T.K.x aXpXmXuX0XlX^.q %.4. . .5._.A.* 9.q.8.7.R.U.F.",
"M H.P.*.^.$X/.P.= _.4.9.} } [  .S T.T.^.T.K.`.Z.7 4.6.1.O.XX=.J.r S.K.L.H.T./.H.x &XsX#X&X7X9X^.S ].H.H.|.H.P.A.% ] q.1.0. X.XT.",
"  r c c S.c A B $  .5.9.1.} }  .X q T h w C : Y $ *.6.,.:.U.r.U.O j j R h R E Y q +XtX&XaX#X#X.X@ A G +.R N G S ; } 9.{ <.'.7.T.",
"M  XyX0XoXr.7.5.- `.4.8.9.} 9. .$ 5.J.^.H...| Z.7 -.,.O.E.E.R.U.0 U.R.R.(./.U.L.r &X#XpXsXOX@X].5 6.XX4Xh.2.qXK.: 9.q.:.1.6.7.].",
"Z oX7XiXp.p.XX'.q 5._.} 9.4.9.5.* 7..X^.7.'.5.A., =.-.-.-.-.4XQ.1 ^.R.oXR. Xq.H.r @XyXsX=XsX#X/.e b.b.oXa.@XXX%.: 5.2.U 4.8.4.5.",
"M wX0XiXqXa. X'.- 9.9. .X.X.:.| w K.).^.$..XT.}.9 &.6.r.T.Y.R.D.8 R.oX+X X.X9._.x wXmXnXmXmXsX/.t qXrXy.y.a.oX_.& ` 0.q.7.'.7.J.",
"6 oX9XwXmXtXXX7.-  .}  .} 9.4.G.8 ^.kX^.].'.].A., ,.7.-.-.-.R.D.8 ].+X X X+Xq.5.j &XyXrX+X#X#X$Xe eXqXb.rX4XwXU.4 4.0. XOX7.7.J.",
"m  XwXiXtXu.oX'.: ` [  ...9.5.5.j K.T.4./ q..XL.1 *.-.R.R.R.R.#.2 6.6.u.t. X+X .A &XtXaX#Xv.+X`.e qXb.a.b.rXy.K.2 7.6.0.1.8.7.*.",
"n t.XXqXrXu.t.J.: X.X.[. .5.7.H.j _.].]..X$X^.G.< -.-.-.4XE.E.#.9 Y. X X X Xi.5.8 +X@XaXaX3Xv.`.e XXrXrXqXwXy.F.2 7.6.<.0.8.7.G.",
"n XXwXqXa.y.oX].- ....9.5.'.*.%.j K.T.(.).%X^.L.1 6.7.*.5X-.-.J.9  X+X Xi.t.i.G.w OX3X#X#X3Xq.].x XXb.qXwXqXy.J.5 6.0.0.0.6.5.'.",
"M oXtXqXtX#XyXT.V ..{.5.5.].T.K.p ~.).dXcXT.<XQ.< &.J.*.R.Y.W.K.0 .XoXq.q.t.t.`.r +X#XaX=X@XOX`.R y.b.qXy.qXXXJ.: 8.0.8.6..X5.L.",
"; 6.u.@XyXeXqXK.r P.,XH.G.P.,X,Xk :XfXkX:X(.:X,Xu *.Y.W.~.!.>X/.u T.6.XX X7.XXL.w $X*X&X#X&XmX%Xe p.p.XXy.wXoXY.- J.'.'.%X'.5.P.",
"X <.i.a.tXtXrX/.M ! ( E R Z.Z.T s ~.dX!.~.:XfXI.q ~ #.m.c c #.W 7 ^. X XXXXX X^.V ^ W #.@.S.%.W 2 qXa.wXa.rX4X).M W Q ^ %.E L F ",
"o 7.OXa.XXXXaX/.O ~ ~ @.&.$.c ^ g /.).T.W.(.Q.;X+ m.N.W.#.$.~ / 8 .X.Xt.q.7.J.^.+ L.R L.m.M.M.^ 2 y.y.qXy.eXwX^.@ E ;.Q 6.6.$./ ",
"b 0.e.y.tXrXqX/.C t.7.3. XXX XH.k xX).(.fX).dX;Xa !.6X!.4..X'.G.8 '.0.q.+X6..XF.s P.J.).(.6XdXL.3 b.qXiXn.rXwXT.M 0.u.i.i.yX@X[.",
"o q.u.p.rXtXqXK.q ;.3.q.i.u.OX5.k Q.'.).).T.<X^.1 4XwXR.,.XXXXJ.f 5.7.q.i.7.^.J.w /.J.(.7XdX7XW.r 7XiX7Xp.r.4XU.5 OXv.v.@XsX@X'.",
"m i.#XXXqXeXiX(.2 6.i.r.i.+X XG.j P./.<X'.$X^.H.x R.9X0Xy.9XyXD.s  X7.t.0.q.&XJ.# G.8.T.6X6X6XP.3 b.eXrX,.a.7XT.n 1.x.v.3XtXi.9.",
"M t.@Xa.XXqXeX(.$ 6.t.q. Xt.i.J.j Q././.T.T.K.K.1 !.0X5XR.4XR.J.j .X;.3.1.'.(.J.# %.R.~.dXgXdXQ.t qXrXrXrXqXrXXXm 3.3X3X3Xv.@X9.",
"N '.u.u.@XrXeXT.7 oX+Xt. X X XJ.8 J.K.)..X].^.L.u 4X7X7X4XwXE.Y.0 :.O.i.i.'.6.K.q F.!.6XgXgX6XW.r 4XeXrXqXyXsXT.N u.v.v.v.v.i. X",
"m 0.@Xv.a.qXeXE.h Y. Xt.i.OX7.'.j fX<X*X'./.J.L.u R.9X4XwX8XoXJ.9 '.7.t.0.i.7.K.s ).6X6XV.V.dXQ.t 4XeXqXtXuXXXt.Z i.3Xv.v.c.v.].",
"m u.u.v.@XeXyXW.h &X X Xt.i.+X*.j :X).T. X(.].H.u 4X7X4X4XeXy.5.9 ^.7.7.i.i.0.*.l ).dXhXvXV.dX/.t 9XbXeX#XuX&X7.m u.@X@X3Xb.tX^.",
"Z +X+Xi.a.XX(.Q.t .X+XOXi.i. XJ.h ~.].7.]..X/.^.a 4X7X4XwXqXr.7.f $Xq.'.t.OX+XK.u W.6XgXC.V.fX-Xt 9X0XeXtXv.y.P.n i.3Xv.n.rXeX(.",
"D /.%X=X*X*XkX/.r ^.OX8.0.0.OXJ.T 1XkX).1X<XkX;Xa 4X4X4XrXwXi.J.A /.`.|.$X/.2X,Xx ~.dXhXzX6X(./.~ zXzXmXzX*XnX2XV OXv.rXn.b.tXoX",
". B D S B H D B q q.q.q.q.0.'.].& Z A A r r A V u R.4X7XwXwX+X].o V S D B D B D d ).jXhXdX6XT.L.5 e Z G L H Z S & 0.v.v.n.rXyX$X",
"* K.^.'.9.X.9...S 7.OX0.8.OXOX'.< %.U.~.:XdX~.G.t R.7X(.wX@XoXT.8 H.K.^.`.5.'.%.d ~.(.E.).Y.5./.5 6.0.t.i.L 6.$.q +X@Xv.tXtXyX).",
": ^.$X X0.8.{.A.V @X+XXX Xt. X].r U.!.!.!.E.Y.D.u 8XyXoXoXy.oXJ.w L.^.^.K. X.XK.x !.E.).(.(.Y.^.9 u.y.XX>.u.i.] M OX3XtXtXtX&X<X",
"q T..X+X[.{.{.}.V e.i.i.8.q.3.8.7 U.(.5X!.R.Y.L.u jXXX XXXi.XX*.8 ^.~.Q.K.T.Y.K.x D.6XgXV.6XR.K.6 r.qX#X3.a.q.J.M t.@XrXeXpX0X^.",
": /.(. XOX[.+XP.V 3.OX0.8.q.t.5.r ~.!.R.(.R.T./.u Y.7.t.XXt.&XJ.s -X-X:X^.(.(.W.3 U.V.gX6X6X(.L.6 u.a.u.o.e.p.J.r XX#XrXiXpXlXY.",
"g /.$X.X+X&X+X( 5 O.+X0.8.q. X'.r !.(.U.T.Y.^.L.a 7XyXoX@Xu.t.4.0 D.U.~.U.U.:XW.u V.C.6X5X8XR.^.6 e.a.v.e.XX3.$.Z t.u.iXbXbXgX(.",
"- ].+X%X%X%X{.H.e 0.i.i.1.i.7.].j T.&X7.'.7.^.G.0 R.(.XXu.u. XP.s Q.B.V.:X-XQ.W.a gX5X(.dX8X(.H.M e.p.a.p.6.e.*.M i.qX9XbX0XlX~.",
": .X.X<X$X].+XP.e 1.6.3.7.q.0.4.8 J.7.7..X^..XG.x 7XXXXXi.XXXXK.f >XB.B.:X-XB.:Xa 5X5X-.6X7X7XP.M e.b.p.p.p.y.D.6 oXrX4X9XbXgXdX",
"M ^.2XkX%X|.$X}.V 1. X+Xi.t. X'.r J.:.'.q.'.5.G.u 5XE.t.XXt. XL.i -XV.!.D.!.:X-Xa N.5X!.6X6XdXW.5 p.b.w.p.p.p.*.Z &XXXiX0X9X8X^.",
"V /.1X$X.X].].`.w 5.q.q.0.0.7.%X+ ' 6.7.J.].'.( d R.wX7X7XwX^.W.i xXV.-XV.B.~.-Xi fXdX~.~.6X6X/.6 c.e.e.e.z.3.7.Z +XoXiX9XpX9X/.",
"q /.+X].'.'.{.}.D ].'..X/..X%X}.q ' .XT.7. X'.H.A ).mX<X).(.).H.f xX>XF.~.Q.:X-XA -X:X>XkXfX<X|.4 o.c.j.z.z.e.].S  XmXmX6XkXmX]."
};
