/* XPM */
static char *_7a3722b0a1b4e18ef0bf667dd76a82fPw8OKk4vmLIraBpE[] = {
/* columns rows colors chars-per-pixel */
"64 64 196 2 ",
"   c #6B6356",
".  c #6E675C",
"X  c #6E6C5D",
"o  c #706857",
"O  c #726B5C",
"+  c #777158",
"@  c #7A775F",
"#  c #6D6F63",
"$  c #756E62",
"%  c #786E62",
"&  c #6F7469",
"*  c #757363",
"=  c #7A7565",
"-  c #767A62",
";  c #7C7A66",
":  c #747469",
">  c #7C756A",
",  c #767A6C",
"<  c #7C7B6C",
"1  c #7C7D72",
"2  c #817B67",
"3  c #80766B",
"4  c #837C6C",
"5  c #897D6F",
"6  c #837D72",
"7  c #8A7F73",
"8  c #7D816C",
"9  c #7E8172",
"0  c #828067",
"q  c #84826D",
"w  c #8A846E",
"e  c #83896F",
"r  c #848372",
"t  c #8A8473",
"y  c #8D8974",
"u  c #848579",
"i  c #8C8579",
"p  c #878979",
"a  c #8B8A7A",
"s  c #918C73",
"d  c #92857A",
"f  c #928C7B",
"g  c #93947E",
"h  c #99967F",
"j  c #928F83",
"k  c #9A8C81",
"l  c #8F9585",
"z  c #8F9A8D",
"x  c #949483",
"c  c #9A9483",
"v  c #949B85",
"b  c #9B9B85",
"n  c #969388",
"m  c #9B958B",
"M  c #959C8C",
"N  c #9D9C8B",
"B  c #979F93",
"V  c #9C9C91",
"C  c #A19C84",
"Z  c #A19688",
"A  c #A39D8C",
"S  c #A99F8E",
"D  c #A29E94",
"F  c #A89F94",
"G  c #A69F98",
"H  c #A89F98",
"J  c #8FA189",
"K  c #9BA284",
"L  c #95A38C",
"P  c #9EA28D",
"I  c #9DA888",
"U  c #97A096",
"Y  c #9DA395",
"T  c #9DAA94",
"R  c #97A598",
"E  c #9CA599",
"W  c #9EAA9B",
"Q  c #A2A287",
"!  c #ABA687",
"~  c #A2AA87",
"^  c #A3A48D",
"/  c #AAA58C",
"(  c #A4AA8D",
")  c #ABAB8D",
"_  c #B2AB8F",
"`  c #AFB28F",
"'  c #B0B28E",
"]  c #A3A494",
"[  c #ABA595",
"{  c #A5AB94",
"}  c #ABAC94",
"|  c #A4A59A",
" . c #ABA69B",
".. c #A5AB9B",
"X. c #ABAC9B",
"o. c #B2AD94",
"O. c #B0A69C",
"+. c #B2AD9C",
"@. c #B9AE9F",
"#. c #A5B396",
"$. c #ACB294",
"%. c #AEB997",
"&. c #A6B29C",
"*. c #ACB39C",
"=. c #A7B89D",
"-. c #ACBA9D",
";. c #B3B395",
":. c #B9B595",
">. c #B3B996",
",. c #B9BB97",
"<. c #B4B49C",
"1. c #BAB59C",
"2. c #B4BB9D",
"3. c #BCBB9C",
"4. c #A7A7A0",
"5. c #ACA7A0",
"6. c #A4ACA2",
"7. c #ADACA1",
"8. c #B1A7A0",
"9. c #B3ADA2",
"0. c #B9AFA5",
"q. c #B2AFA9",
"w. c #A5B3A3",
"e. c #ACB3A3",
"r. c #A7B9A2",
"t. c #ADBAA2",
"y. c #A7B2A8",
"u. c #ABB5A9",
"i. c #AEB9AB",
"p. c #B3B4A2",
"a. c #B9B5A2",
"s. c #BAB4A3",
"d. c #B4BCA6",
"f. c #B4BBA3",
"g. c #B8BBA3",
"h. c #B9B9A4",
"j. c #BBBBA4",
"k. c #B4B5A9",
"l. c #BAB5A9",
"z. c #B5BFAA",
"x. c #B4BCAB",
"c. c #BCBCAA",
"v. c #AFB9B0",
"b. c #B4BCB1",
"n. c #BBBDB1",
"m. c #C1BD9E",
"M. c #C0B6A6",
"N. c #C2BCA3",
"B. c #C1B6AC",
"V. c #C2BDAA",
"C. c #C9BFAB",
"Z. c #C7BFB1",
"A. c #AFC19E",
"S. c #B3C19E",
"D. c #BCC19E",
"F. c #AEC1A3",
"G. c #B7C0A2",
"H. c #B5C5A6",
"J. c #B3C2A3",
"K. c #B9C5A1",
"L. c #BDC2A5",
"P. c #B8C7A7",
"I. c #BBC1A3",
"U. c #BEC9A5",
"Y. c #BDC9A6",
"T. c #B5C2AB",
"R. c #BFC4AB",
"E. c #BBC3AB",
"W. c #BECBAB",
"Q. c #B5C2B2",
"!. c #BAC3B1",
"~. c #BFC9B3",
"^. c #C3C29E",
"/. c #C3C3A3",
"(. c #C9C4A4",
"). c #C5C9A5",
"_. c #CACAA6",
"`. c #C4C3AB",
"'. c #C9C4AC",
"]. c #C3CBAA",
"[. c #C2CDA9",
"{. c #C3C9AC",
"}. c #CACAAC",
"|. c #D0CDAE",
" X c #D0D1AD",
".X c #C4C4B2",
"XX c #CAC6B2",
"oX c #C4CBB2",
"OX c #CCCCB2",
"+X c #C4CCB8",
"@X c #CECCBA",
"#X c #D0CBB3",
"$X c #D2CCB9",
"%X c #CED0BB",
"&X c #D3D2B3",
"*X c #D1D6BA",
/* pixels */
"t  .[ O.[ ^ } C Q +.] ^ [ X.^ / Q }  .} a.6 F / } 1.1.o.} :.<.<.1.<.[ <.+.} [ 1.a.1.d ] e.7.X...X.+.2.3.f.p.h.c.<.o.:.D.L.<.z.o.",
"6 A } { *.<.Q { ~ <.( ( } *.<.K } ( { { a.4 0.h.;.o.l.1.<.<.1.3.+.X.} +.<.+.+.X.[ X.f Y u.e.w.r.w.e.t.J.t.T.T.d.R.[.[.U.].L.J.`.",
"u { } #.#.f.#.h #.{ } ( ;.P P >.$.;.~ #.a.< [ h.j.2.1.h.p.;.z.;.p.X. .p.X.X.X.X.d.+.x R !.Q.u.w.r.W r.r.r.r.t.i.P.H.W.Y.W.J.P.R.",
"u } } K { { J.{ $.( ( ( %.I $.~ ~ ( #.( R.8 p.<.3.;.<.p.<.} *.X.| { ..X.d.| X.&.X.c.P Y w.u.y.r.w.w.v.w.r.r.T.i.t.P.W.[.S.U.K.G.",
"t } $.( $.} $.{ ~ K { ( { I -.-.-.I ` $.{ < p. .<.X.X.*.t.X. ...Y ] N &.p...| X.X.@.c Y r.W w.y.w.y.u.W i.w.=.r.t.-.H.K.S.S.D.Y.",
"t ) ' ~ $.} $.( $.) ( $.;.( b %.{ I >.D./.< X.X.e.7. .N  . .e.X.X.7.{ ..} *.&.X...a.n M w.r.R y.w.y.u.u.w.W u.w.-.t.{ -.%.-.-.W.",
"w ;.2.>.$.} >.} ;.*.( $.$.} ;.} >./ ;.>./.=  .0. .+.7.D D | 9.| 4.7.7.| X.<.<.X.7.k.n M ..w.E 6.w.w.6.w.v.R v.u.w.d.&.*.z.x.t.*.",
"  @ - ; - ; < ; < * * ; ; * ; < < q 0 2 i % $ 6 > 6 > > $ > < $ : < < $ * = < < > > 4 o > < , - 9 9 , & , & 9 1 , 9 9 < , < 1 i ",
"7. .} X.|  .| D X.9.n m | 5.O. .G  .G D 5. .8. .[  .8.7. .O.8. .u k.[ o.<.p.1.a.X.<.j.h.<.2.%.*.2.} X.p.XXr X.] <.X.} } <.<. .f.",
"E ..6.6.E R U W ..] m V m | X. .D D  .V 5.H |  . . .n  .| [ O.l.i i.-.f.G.-.#.$.-.-.J.2.J.A.L.-.P.&.T.#.{.2 ..&.{ =.{ T *.#.{ ..",
"W W W R B R R ..#.#.v V X.P [  .] V G D j | 4.D V | D V  . .X.o.8 U t.{ F.-.J.-.A.2.-.J.%.( -.2.d.T.T.T x.6 x #.t.I T.P #.%.T W ",
"W W B z B Y ..{ =.f.N N  .<.X.X.| V G 7.D G X. .X. .] m ] } [ a.l J %.-.-.-.2.F.-.#.#.-.=.#.I F.t.J.t.r.@Xt u.L T x T =.=.#.W T ",
"W u...T M e.X.*.2.2.b D [ X.[ <.| m 7.X.| X.{  .X.X.] | ] [ [ @.g T.-.-.-.=.t.t.t.-.H.f.J.J.-.-.t.t.f.-.{.5 *.t.f...T =.#.#.#.W ",
"T t.&.=.v ....t.*.$.c A [ [ X.X.G V | | X.+.A X.} ^ C X.| D [ @.p =.-.-.t.=.-.*.#.#.#.#.A.J.J.-.J.J.Y.Y. X2 ..t.-.r.=.&.-.#.T W ",
"W T T.{ T w.{ *.-.2.c m ] X.| 7.| G G  . .+.@.}  .} ] l.[ [ O.1.a *.t.F.J.d.f.f.t.=.d.*.r.P.t.-.A.S.H.H.*X2 X.=.=.&.6.w.&.=.T W ",
"1 X < < * < , < ; q 2 . > 2 3 > 3 > : 4 3 3 5 t * = > 3 3 2 ; w   < 8 8 < < r p a 8 * - < 8 < e 0 e e 8 g * : < 8 ; < < < ; , < ",
"a m 7.|  . .X. .+.;.+.X.V ] ] a.| | m | l.6 a.9.9.p.k.p.p.h.z.h.c.9.c.c.l.7.6.k.8.n.k / 1.1.1.j.3.3.j.V.s.s.V.h.<.1.p.9.1.1.V.0.",
"p ] V V G | ..{ { $.&.] ] ] u...B | E ..e.= p.k.u.k.n.z.T.R.].G.u.i.r.x.i.u.6.6.y.+XN [ ].D./.).^.)./._.h.<.} <.:.j.1.h.I.).I./.",
"r } x E ..| X...6.} X.Y { ....7.] ..| | p.< { v.y.y.T.t.E.E.L.z.u.W !.!.u.i.u.v.u.x.M <./.).D.).)._.).m.D.).$.j.)./.L.L.3.).3./.",
"g >.v B E Y .. .X.%.d.B ..X.*.{ | 6.W | k.9 | 6.b.i.x.Q.d.d.J.d.T.!.t.~.=.i.i.i.b.x.b o.3.j././.^._.&X X_._.j.h._./.3.].I.^.^.'.",
"r ;.f.] ..Y |  .| { ..| 6.Y {  .| E E Y x.r ] w.y.u.u.x.x.+X~.t.t.E.T.E.t.x.i.u.b.x.M @.j./.<.3.^.^._.).(.}.2./.).^.).3.` D.^.^.",
"a } >.<.X.D X...] Y ..| X.] { &.....| | e.6 oX!...x.i.T.b.T.z.!.t.u.T.~.b.u.i.u.v.n.n f <.+.] 3.D.).).I.).`.3.:.^._. XD.D.,.^.^.",
"a } $.{ X.| ..7...X.E 4.4.E &.X.....| ] k.: c.+XE.t.i.Q.x.i.x.x.i.b.u.i.b.b.v.v.x.n.M @.a.`.p. .p.V./.3.V./.`.I.>.>.^._.D.^._.3.",
"  $ 6 > * < = = > > > * : < > > > * > > 7 = > u u 4 < r , r u i 6 6 e u u 6 6 1 6 4 t . r < X $ < t y 5 t t r r y @ w w w s w w ",
"V.N.N.s.1.s.M.@.M.M.Z S o./ / o.1.1.<.1.<.1.o.1.o./ o.o.o.1.1.o.d a.+.9.8. . .9.O.j.h.h.1.<.<.1.h.p. .a.Z.t +.p.2.3.m.:.N.m.C.N.",
"N.3.m.m.m.C.m.@.m.} Q } $.$.;.} $.;.;.o.) ) / $.) ) ;.o.o.:.:.N.x h.} w...p.e.e.p.<.:.<.<.h.j.h.] ;...p.Z.4 a.p.1.m.(.m.N.(.m.N.",
"m.m.m.m.N.(.N.:.j.1.C b ( ( C } o.<.3.$.$.$.( <.;.} <.} 2.2.<.<.t V.$.p.p.p.p.X.p.X.p.p.[ p.X.w.p.&.e.e.c.6 8.p.a.j.;.N.m.m.(.m.",
"m.N.m.N.^.^.:.m.:.(./ / j.<.} / / ) ;.j.3.;.) [ o.+.o.b / a.:.@.f j.;.p.*.*.p.*.*.*.d.{ d.......e.6.p.&.l.6 +.a.+.1.:.m.m.! ^.m.",
"S m.m.m./.:.(.m.m.|.C ^ <.} <.o.$.K ` ;.>.;.:.Q } 1.;.} Q <.1.1.f f.f.p.t.*.p.t.| 2.%.X.X.&.t.{ *.*.<.a.c.t s.l.N.m.m.(.^.m.m._ ",
"s.:.} /.m.1.:.m./.(.^ [ <.} } } 1.) _ ;.,.>.^.o.1.;.3.2.} ) 1.1.f 2.2.a.k.X.e.a.d.( <.d.{ X.X.P b *.&. .+.4 l.1.m.^.:.(.m.m._.m.",
"M.N.s.M.N.N.M.N.m.m.c D } <.a.[ s.o._ :.3.m.N.;.3.;.;.;.<.1.<.o.f j.I.f.p. .a.p.f.j.c.<.a. .p.p.} p.l.l.Z.2 s.s.M.C.o.N.C.(.|.#X",
"t 5 w t t w t 2 5 4 t o 2 2 > 2 w t q 5 w t 4 w w t ; q 2 6 = i   q 8 2 r ; 1 q r w ; q < u 1 a r < q p t % 3 6 6 4 w 4 t 5 7 5 ",
"f o.+.@.a.1.1.;.o.:.m.).m.:.1.3.o.@.C <.'.7 Z +.) o.:.:.o.:._ o.1.:./.:.o.;.o.;.:.N.c F O.1.<.<.1.1. .X.p.<.a.X.} <.[ s.1.j.m.o.",
"d +.d.^ +.} p.<.2.2.:.:.;.).m.h.1.c.X.*.p.> c ^ <.<.;.) ;.3.:.$.#.>.>.-.2.' D._ ,.}.b A <.<.z.>.2.<.*.#.&.*.f.f.d.d.&.p.p.*.1.j.",
"d } p.{ *.d.*.f.$.$.$.2.I.) ;.d.p.k.6.X.X.4 b v N $.f.( 2.&.%.>.3.;.' ;.` ,.,.` ' ^.b P d.*.L.S.J.Y.G.t.J.J.#.*.T =.{ { t.$.2.2.",
"f <.e.} { +.<.2.).} d.$.%.;.t.d.6.W p.7.n.2 h.X.N } *.$.g / P P ~ ;.` 3.;.>.D.D.;.^.b ] ( ( $.%.D.>.2.S.-.S.f.x.*.d.t.&.*.*.I.f.",
"f <.f.} *.*.2.*.j.<.f.<.$.<.} <.k.| 4.7.$X> N } $.2.*.2./ { { { { K ;.$.%.2.;.) ;.3.C <.j.:.[.^.D.S.D.2.2.K.L.f.f.$.d.;.2.&.z.V.",
"s <.;.} j.$.} ;.2.;.L.j.<.I.$.I.p.6.6.p.{.2 } } $.} <.3.{ | p. .$.~ :.} } ;.;.;.<.:.C <.Y.S.D.K.D.D.S.G.2.D.G.J.*.{ f.z.-.2.>./.",
"y 3.} ;./.$.;.>.I.3.;.;.;.<.<.f.*.7.7.a.{.2 ] ..{ ....t.e.M .. .*.;.$.$.} *.<.$.$.;.x { f.D.2.I.2.2.j.G.I.S.;.R.{.2.L.%.K.K.2.f.",
"O + w ; y e p w w y t t q q t < 2 2 u r s + = < < < < > 1 1 1 < > 2 q 4 > q q < 4 2 4 * e q q q e q q w w e r w q < y q r y w s ",
"o.0. .+.X.O.X.X.X.V.k A  .0.X.1.X.[ ] o./ m.s.a.@.<.+.j.+.S l.[ d 8.8.0. .M.[ 1.M.C.@.C.'.1.+.0.a.s.1.s.'.5 o.;.s.N.s.+.O.+.[ 0.",
"l.+.a.j.^ a.s.X. .} ] ] 7.{ ..&.*.t.2.z.{ =.*.*.t.-.t.<.d.{ { 9.1 G  .l.+.k.c.l.V.N.'.3./.V.a.9.h.[ +.h.XX5 /.;.:.<.h.c.a.+.o.O.",
"a.2./.3.j.I.p.} <.[ c X.x.x.d.d.=.&.X.&.&.{ t.&.*.*.&.-.f.<.X.1.i X.a.a.X.p.l.V.;.3./.3./.<.h.a.a.h.h.<.`.2 _.:.<.3.<.} j.X.<.p.",
"} 3.3.$.;.3.3.N.`.'.x { f.p.*.<.p.<.&.*.f.X.$.[ f.f.;.2.f.$.;.f.5 <.[ ^ <.( l.h.}.j.3.3.}.j.} p.1.+.<.<.XX4 ).3./.3.<.<.h.X.1.X.",
"R./ ;.a.^ ` j.<.<.k.^ / 2.2.2.2.z.*.f. .<.X.d.} 2.2.;.-.I.z.2.j.i c.h.j.2.} *.h./.OX3.;.3.j.`.a.x.c.<.} `.5 ^.^.D.:.<.<.} <.} h.",
"c.a.*.<.h.} ;.3.p.1.h } 2.2.2.2.j.%.$.( %.*.<.$.%.2.2.2.2.>.2.;.j a.p.h.OX1.0.a.m.)./.N.N.} j.h.<.`.L.[ }.q 3.3.D.D.3.3.X.N X.h.",
"p.V.<.<.<.j.j.h.a.0.C } d.G.2.j.2.z.oX$.z.0.c.2.3.L.3.2.j.I.<.3.< 0.X.a.a.0.7.a././.N.N.$XV.1.V.o.XX'.N.#X4 +.3.3.`.3.z.p.2.P / ",
"= 6 2 5 w w t t 3 7 t * > r q 4 4 4 q q 5 < 5 y q q q q 2 q 2 i . > 2 6 2 t 7 6 y s 7 7 d 5 t y 4 w w w f O ; t = 5 5 t > r = < ",
"i a.s.`.N.M.c.l.l.V.s.V.1.1.1.h.a.a.h.a.V.3  .[ O.O.X.@.l.l.O. . .5.O. .o.O.0.o.@.V.k S 9.X.@.p.1.+.+.<.a.k.9.9.X.7.9.p. .p.c.9.",
"f d.h.a.z.h.a.<.h.c.h.`..Xj.j.3.L.<.3.h.'.5 [ X.p.X. .X. . .a.D  .7.7. .9.X.+.<.o.C.S N e.*.t.X.p.e.f.p.p.e.p.t...e.e.7.X.p.w.l.",
"a h.z.j.R.L.f.} R.R.h.f.%.OX$./.).OXj.3.&X5  . .5. .7.| 4.G 5.| 4.4.5.4.7.7. .9.0.a.A | d.X.p.e.p.e.w.e.6.X.p.X.X.X.e.t.X.t.X.*.",
"c /.`.j.`.R.oXf.h.z.f.j.`.;./././.}.OX/.XXq m X.8.q.5.|  .| 5. . .7.5. .G  . .9.X.@.a { p.e.u.p.p.9.e.p...e...p...| | ] *.*.X.l.",
"b h.j.j.R.c.f.h.R..Xh.<.R.R./.)./.`.).{.'.6  .} X.0.D D |  .n X.5. .D X.5.G q. . .@.c ] ..X.*.X.e.p.p.u. ...{ d.e...| e.{ k...f.",
"h `.<.<.R.d.l.X.h.x.d.*.I.).L./././.j.D.&X2 [ p.p.+.[  .X.p. . .9. .0.X.G V  . .+..Xm N &.{ *.p.p.*.p.d.7.e.p.t...e.x.t.{ p.*.X.",
"s j.j.<.z.c.l.k.l.X.a.c.f.j.j.I./.`./.'.#X; O.0. .s.O.| 9.O.9.8. .0.7.O.5. .5.X. .a.b N <.{ *.&.d.p.x.d.c.6.u.i...&.Y ..| ..X.d.",
"  q t 4 t 7 3 i i 6 6 t 6 r q w y y y w f * $ 4 = 6 4 > 4 3 4 4 > 3 < 4 > > > > < t ; o 4 5 * * = u t q q r 1 6 1 r = r < 6 < i ",
"7.8.9.q.l.B.8.l.O.s.n Z 8. .o.o.o.o.[ [ [ X.X./ <.<.+.<.1.o.N.1.7 9.t.9.*.<.p.<.d.1.s.V.l.2.D.I.3.2.3.3.V.4 O.H 0.l. .8.l.l.8.l.",
"7.q.q.q.p.l.e.6.k.l.Y x ....X.&.&.&.e.*.X. ...{ X.*.} $.*.;.<.V.t &.d.*.*.f.{ d.J.t.t.t.t.-.F.J.A.S.G.D.#X6 7.q.q.k.p.u.k.l.p.k.",
"5.b.4.4.k.k.a.Z.c.l.F V ..&.X.X. .*.p.w.d.Y ..Y ....X.&.&.<.p.x.b #.&.&.d.&.{ w.k.T.t.d.t.f.-.-.-.t.F.*.R.4 4.E q.6.c.l.O.l.0.X.",
"p..XX.7.a.n.c.X.k.a.A N X. .{ X.} X.w.Y W w.W ......w...&.{ ;.p.b f.#.-.+Xt.t.#.t.J.d.t.z.t.f.-.=.t.u.t.c.1 7.7.y.q.x.l.h.a.k.+.",
"p.c.c.p.L.} h.j..Xs.c ^ | ] $.*. .] W E U 6.....&...w.Y ..{ *.$.v W.H.S.-.H.-.t.F.r.=.*.t.#.%.&.....w.e.n.6 9.p.k.p.x.l.Z.OXp.a.",
"c.k.x.p.`.h.<.<.V.Z./ N 9.] { *.| ....*.v ..{ ..6.T X.M d.{ } <.x G.J.U.S.>.2.S.f.W X.u.....d.f.=.u...d.n.6 l.d.d.h.a.a.p.!..XX.",
"s.k.l.c.`.p.{.V.3.a.m N X.t.| } X.] P ....b X.6.| Y ..Y ] / } s.i <.P.J.f.t.t.p.T.X.Y u.6.X.t.u.e.6.w.u.n.6 c.l.a.V.c.k.c.d.c.c.",
"* > 6 6 4 6 6 a r 6 i X > < q r , < * < 8 * < 1 < < < X = ; = y o r 9 < 1 1 , 1 9 : & # 1 : 1 1 9 9 , r u % > 6 7 6 7 4 4 6 r 6 "
};
