/* XPM */
static char *_3ad27b070c34efb9b6f8ddf39620f0dueDxcIhhz0jP9WKE[] = {
/* columns rows colors chars-per-pixel */
"64 64 171 2 ",
"   c #8F581D",
".  c #91571E",
"X  c #93591E",
"o  c #995C1E",
"O  c #9E601F",
"+  c #A2641F",
"@  c #965D21",
"#  c #9B5E22",
"$  c #966223",
"%  c #9C6423",
"&  c #9C6925",
"*  c #9E6D28",
"=  c #A36524",
"-  c #A86726",
";  c #A56B26",
":  c #AB6C26",
">  c #A56D29",
",  c #AC6D29",
"<  c #B16E27",
"1  c #B26D29",
"2  c #B96F29",
"3  c #A67127",
"4  c #AC7126",
"5  c #A6712A",
"6  c #AD7229",
"7  c #B27327",
"8  c #B3732A",
"9  c #B9752B",
"0  c #B4792B",
"q  c #BC7A2C",
"w  c #BF7F30",
"e  c #C4762E",
"r  c #C27C2D",
"t  c #C67F32",
"y  c #C87D31",
"u  c #BE8431",
"i  c #BD8A33",
"p  c #C4832F",
"a  c #C38432",
"s  c #CA8532",
"d  c #C48C34",
"f  c #CB8C34",
"g  c #CD8F39",
"h  c #D68635",
"j  c #D48C36",
"k  c #DB8D36",
"l  c #D48C38",
"z  c #DB8E39",
"x  c #C39136",
"c  c #CB9336",
"v  c #C39239",
"b  c #CE923A",
"n  c #D59235",
"m  c #DB9436",
"M  c #DE9936",
"N  c #D5943B",
"B  c #DC943A",
"V  c #D69A3B",
"C  c #DD9B3C",
"Z  c #E08F36",
"A  c #E18F3A",
"S  c #E39536",
"D  c #E39A37",
"F  c #EA9B37",
"G  c #E3953B",
"H  c #E9963C",
"J  c #E49B3C",
"K  c #EB9C3C",
"L  c #F09A37",
"P  c #F1973E",
"I  c #F19E3D",
"U  c #DDA13B",
"Y  c #E6A037",
"T  c #ECA237",
"R  c #E4A33D",
"E  c #ECA33D",
"W  c #E6A93E",
"Q  c #ECAA3E",
"!  c #F2A43D",
"~  c #FAA63E",
"^  c #F4AA3E",
"/  c #FAAC3E",
"(  c #F4B13F",
")  c #FCB13F",
"_  c #DD9D40",
"`  c #E59D41",
"'  c #EC9D41",
"]  c #F19D41",
"[  c #DDA040",
"{  c #DEA141",
"}  c #DFA341",
"|  c #E1A141",
" . c #E3A040",
".. c #E7A341",
"X. c #E3A640",
"o. c #E3A442",
"O. c #E3A642",
"+. c #E2A441",
"@. c #E7A641",
"#. c #E6A544",
"$. c #E5A341",
"%. c #E9A240",
"&. c #E9A342",
"*. c #EDA040",
"=. c #EDA341",
"-. c #E8A642",
";. c #EAA643",
":. c #EFA742",
">. c #ECA441",
",. c #E5A840",
"<. c #E7AF41",
"1. c #E7AA41",
"2. c #EBA841",
"3. c #EBA942",
"4. c #EAAA41",
"5. c #ECA941",
"6. c #EEA941",
"7. c #EFAC40",
"8. c #EEAC43",
"9. c #EDAA42",
"0. c #F1A540",
"q. c #F2A541",
"w. c #F3A542",
"e. c #F7A740",
"r. c #F7A641",
"t. c #F3A441",
"y. c #FAA440",
"u. c #FAA641",
"i. c #F2A941",
"p. c #F0A942",
"a. c #F2A943",
"s. c #F2AB42",
"d. c #F1AD41",
"f. c #F6AC40",
"g. c #F7AF41",
"h. c #F5AC43",
"j. c #F0AD45",
"k. c #F1AE46",
"l. c #F4AB42",
"z. c #F8A840",
"x. c #FAAC42",
"c. c #E7B143",
"v. c #EBB043",
"b. c #EEB040",
"n. c #EDB145",
"m. c #F1B040",
"M. c #F3B142",
"N. c #F7B241",
"B. c #F5B143",
"V. c #F6B043",
"C. c #F7B742",
"Z. c #F5B243",
"A. c #F9B540",
"S. c #F8B441",
"D. c #F8B742",
"F. c #FCB440",
"G. c #FCB743",
"H. c #FAB144",
"J. c #FCB342",
"K. c #F6B945",
"L. c #F9B842",
"P. c #F8B843",
"I. c #FCB842",
"U. c #FBB844",
"Y. c #FCB945",
"T. c #F6B048",
"R. c #FBB649",
"E. c #F7BB4A",
"W. c #FABA48",
"Q. c #FFC046",
"!. c #FCC04A",
/* pixels */
"9 H G H S z G k S F m B D D S G m G D G &.8 A S H F E I D E K ! I K F H K K H K E ' e l K ` J G J K Q Q E E p.p.E K ! ^ Q ! 9.D ",
"1 z H D E E n M m K m m K K K n Y n B F E 6 I y.K ! ! ! ! ! ! ! H I H K ! I K F H K p B &. .` O._ ..Q s.9.p.h.p.H.L.L.) I.M.h.c.",
"0 C D C C 9.U f Y D D m T n m W Y T M D 0.6 H ~ ~ ! ! ~ r.! z.K ! K J ' K J K J 0.J a N 8.k.O._ O.V R X.O.,.<.;.M.^ C.D.C.( D.c.",
"9 F D n M F Q D Y C C D T M Y m M C D D V.5 E I ~ ~ I ! K D E J G B C K t.B H ` J k.d B @.O. .{ [ [ #.[ U O.8.-.9.M.L.I.^ ) H.W ",
"q D T m F F Y C m c C M D V R Q W n Y Y J ; ] H ! K G E K J G J j B j J ' J C J J P f l &.V [ } [  .&._ @.C  .;.W W b.( Q ^ ( W ",
"9 F T D Y D Y F T D M T E m c Y M M T ( 8.- G H ' J G l ` J ' ` J ' C D F K J J J ] s f U } b #._  .#. ._ _ #.{ @.X.M W W W W c.",
"9 ! ^ Q T D ! F T K M F T F T D Q M Y ! 8.; H ] H ' H z z H ' G _ ` ' B K E ' H ` ] a f _  .b V o.#._ _ ;.b 8.o. .&.R R 9.<.W E ",
"  = + 4 > > ; ; ; = = > > = : : : 7 4 4 9 = # 2 ; , : , # - = = - - , % % ; : 6 - : 1 # : > 3 * 5 5 * & * & > > > 6 5 > > 5 6 q ",
"` H G G B G G z K J a h z ` H A z ` z h ' ` ` A A G H H G H H _ 9 ' G K 0.E K I K E Q E E Q T R &.C J E n.8 J B E J D J =.K J ..",
"N C _ _ N N g V C B i l g G H A z z ` h A A ` A G H s G z H H $.0 k.E 9.m.T U W E Q ^ p.^ Q m.R M.U <.C T.1 C R V R M M R Y M C ",
"N N _ g g g N V U R i l H m H H z l z h y _ ` A l G B z H H H H 5 c R C Q Q Q Q Q W W ( Y M T Q s.m.<.V 8.8 a V R V Q c Y R V V ",
"N _ g d g N C C R ^ d h H ' J J G z z ' z A H A ` G z g l H S ..u x Y Q R Q Q Q W U R R W W c Q E 9...R E.0 E c V d C U R R V N ",
"V  .U V d ` J E E 9.d z H K B K ` s ` _ S K B H H J B A B H G J u <.Q R E R 2.2.Q W b.W m.m.Q W 2.Q ^ Q m.8 E @.,.C V R U U U V ",
"N O.R U f C J &.E F u z S H H J z h z G ` P j K G m m H A Z H D q @.R Q <.R E R R C U U Q m.Q W b.s.C.C.K.7 J @.Q @.R U W U V V ",
"N B 8.M M  .C E Q E u s z F G ` _ z G A H P P J H S B I Z G K R u K Q b.s.p.^ 2.Q R Q T O.M.Q Q Q Q ( M.E.7 K E R U R _ U U V N ",
"6 $ > 5 & ; ; 4 3 7 : # : 1 : - - - - 1 : : 2 0 = - 1 : : : < 9   > 5 4 4 3 8 q 0 3 = ; 3 6 : 0 0 7 0 4 a = = 3 3 3 , > > : , > ",
"w f ` A G G H H T R K J l S B K C z l z ` 1 ' K ' ' &.t.t.=.^ p.w.J ;.8.] ` _ ' ` ;.a A ! E ! ! ~ ^ ^ Q ! t.0.;.T E &.K ! ! p.J ",
"0 z g l z ` G G G Y J B B N ' _ l B z _ &.> =.;.&.;.x.a.h.H.G.h.$.#.#.k.#.#._ _ ' T.f J J./ / ) ( ) / G.^ I G ! ! z.! ~ / J./ 8.",
"0 D s z B C J J ' G J l B C J J N G N B &.5 C >.` ` h.;.h.x.V.s.o._ T.k.` #.` #.$.;.f F x.G./ G.) I.) / / J.T ^ H./ x.x.^ J./ 8.",
"a E f f N l H C J E ;.g ` J J J _ ` B B &., G _ 8.&.j.x.z.,.s.9.;.8.#.T._ j.;.;.;.8.f F / / ) J.) ) Q.K.D.G.z.~ G.) / J./ ) ) b.",
"0 E p.M G N G J G G J C J B B C B l _ B &.6 C _  .$.#.a.j.R.T.O.,.Z.k.V.' j.;.#.T.a.d ' x.x.~ ^ ) ) G.) G.G.! x.) ) ) ^ D ^ ) Q ",
"q F E E ` l ' C N l B C C C G K G _ N B ' 6 R.k._ 8.;.j.j.Z.8.k.-.,.8.T.k.#.;.` &.a.s t K K S ! ~ J.) / J.x.^ ! ) ) Q.( ( ~ ( Q ",
"q K K G ' B S ` ` ` B _ C B J J ` C B B t.; 0.R.h.&.;.T.&.&.k.a.;.8.;.j.k.T.;.;.;.k.a _ &.h.J K ~ z.x.~ x./ x./ T T ) ) / ) ) Q ",
". # 1 - = : = = - - - = & = , ; = = - - 8 = , q 0 , 6 6 > 6 0 0 8 , 9 8 8 8 1 1 1 1 9 @ 9 , # % : 0 q 8 e q q 9 u 4 7 9 7 r 0 q ",
"p.z.^ 0.I y.I I t.&.s k H F Z F =.! K E E ! K K K S F D K T E D q ` K ` H H H H K t.! 0.! I K E ;.E K E 8.9 K =.T T ! ^ Q ^ / h.",
"/ ~ ~ ~ / / y.! ! F x Y R Y T K K T ! K F F D F D D ! K L I ! ! s r.G ` J &.R ' =.! ! K ! ~ s.z.m K H ! T.1 ] y.~ / / / / / / / ",
"~ / ~ ~ / ) ( T ^ ! x j m S m H L I ! T K F S T K K I F ! ~ ~ E 9 z.J ! E ;.=.K E K t.=.K K J ` =.K ..' r.1 ] I I ~ L / E T / ~ ",
"/ x.~ / / / ! ~ ! x.c m ~ T D S D D ! ~ ! T D F L L F j S ! ! K y z.E ! E K 0.K K E 0.C &.J C G ` J &.' r.1 I ] I ~ ~ ~ Q F / / ",
"S ~ / ~ / T / / ~ I.d B E F K K F m T T ! T T S D ! ! S m L I ! r 9.^ E K J ;.R M Q E D ..J R B E R K t.w.9 y.y.~ / ~ J.) T ^ F ",
"~ ! K x./ ! ! ~ / ) d S T K F S ! S F T / ! / F ! T ! ! T F ! T r ~ E r.r.K t.0.r.V E &.B J K m j K K H K 1 ] ! ~ / ! ) ^ ( G.) ",
"! ^ 0.y.x.~ / ~ ~ ~ u m F ! ' H ! K F ! ~ / / T ! T K ! ! ! I H r z.x.r.t.D r.K ~ ! p.&.=.J =.0.G ! p.;.x.1 ] y.~ x.K ~ x.x.J.J.",
"9 2 8 8 8 9 9 < 8 8 6 $ , 1 : < 8 9 8 2 2 9 2 7 0 q 3 4 : 8 - q o 7 : 1 8 : 6 8 9 0 : 6 5 6 5 0 8 , 6 0 0 = : 1 8 8 9 1 9 2 q 8 ",
"y H K K I K I K E T ! M.^ ! ! ~ F K k K p.2 h K F F ~ ! L ! L K ! ! ^ F T F F T T W s k K I E K ! ! D J E E ;.J G E B t.I ! 0.F ",
"e K r.N ! K ~ ! ! T ^ T F ) ^ ^ t.p.G E R : h S I ! L D ~ ! ! T M Q Q Q ^ ! ^ F ~ ( f j ! ! z.Q ~ ! R D C W E 2.Q 8.R ! ! K ~ <.",
"r M E J K ;.T 9.Y Y Y ^ Q Y E ^ =.=.C ` J 6 f f j F ^ M ! F T E ! W T F T ^ ^ Y T / d j 2.R J.s.^ m.s.2.^ Q R R V R U C E R Q W ",
"r ! R H D J ! ;.Z.J s.D W E E r.` C ` G j.> 0.J f K E Y p M n n m Y Y ^ T Q ^ ( Y ) f n m M T T / ^ / Q E Q ^ 9.R E E R R U / Q ",
"r ! ! F T R ! R s.E R &.F E F ;.' B ` ` W.> j D T ! T 0.S G G G D n T J T ~ ! F K ~ f W / T D.) / / / ~ ^ ( h.Q T K p.R E Y h.8.",
"r ! T C Q D F E ^ T h.^ R h.R z.t.K ` H H.3 H D F J E ^ B C &.J D M Q F L T T F K ! f R M./ / ) / ( ) ^ ^ ^ / ^ R C ^ / E Q ^ <.",
"p ! K K ^ Y T ~ / ~ ! K T ! ! ! H ` K t.C.; H J B J C =.` d C C K T T K K K ! F F T d G ^ ^ ^ ^ ^ ~ / ( ^ / T ( Y.E H.T h.) ! W ",
"o + 0 4 u 0 0 0 4 0 0 0 4 6 9 6 4 6 6 8 q + = 5 ; > ; 6 6 , , ; = 8 7 7 : 4 8 4 4 7 7 $ 0 6 7 9 4 0 4 0 0 0 0 7 0 4 0 4 0 0 4 p ",
"F G H K H H H H K ;.a k H H J K K F B F S ~ r.K K I E E K Z t.B e ] ] ] H t.H I ] x.P x.h.! H t.] ' H t.m.2 F F ! ! ! H H P G I ",
"r.K ! p.m E r.K G G x B ' C V R ` R @.8.C R R R E 9.;.! h.B J J , z H ] ' t.t.t.x./ J.;.x.J.r.K y.F R r.H.9 / ! ! t.r.y.t.K K K ",
"r.~ x.^ ~ h.! D K H u J z.p.p.9.J @.D R U J &.R E R Y Q ^ &.K E e H ] ] K K t.x.E T x.^ x.K r.~ ! p.z.! H.8 ) ~ ! ! I F y.K K ! ",
"S ^ ~ T T ~ 9.z.H.H.u G 0.0.K ! E E R J ;.D J D E 0.E E Q F T ..8 =.S m E z r.z.Y./ ^ ! J.0.J ! ! K R J x.8 ) / / / ~ I r.K ' F ",
"s.S K ! m F x.! K ;.v F ^ ! E ~ z.E &.J ! K ^ D ^ ! ! T s.^ ! 9.q y.r.0.! C ' y.H.C.^ ! ! ^ h.;.r.z.0.D h.9 / / ) ! ~ K D ! H y.",
"j.r.E K ;.D T ! ! ! a D ^ ^ ^ ^ h.E Y m E K 0.Y T ^ ^ ^ Q ^ E T a ' =.0.R.! K ~ / H.) ^ ^ G r.9.K k.z.J V.9 ^ ^ / ~ ^ Q J j J z.",
"I x.I ! ~ r.z.z.P ' i S ^ z.^ ~ ^ p.J.E z.I a.^ / h./ ! / / ! E , ' I ! ~ ] ' ] ^ ) ~ ~ R.z.y.z.K J.J.x.Y.< K ! ^ J.~ r.E E n B ",
"= 8 7 7 6 8 8 0 , 8 9 % : 0 4 8 7 , 6 8 8 > 1 q 7 9 7 7 4 4 : e @ - : 9 : 8 2 8 0 q q 8 q 8 9 0 7 8 9 9 r + ; 9 - < 2 0 > 9 = 4 ",
"q ' t.x.s.p.0.t.' w.0.a.] E E 0.! =.0.! ;.1 H H H P K I ] ] H H H ` H H H P ] L I w.y k ' G K ] I ' H ! K t.' ' J H ' =.H K w.` ",
"w t.y.r.z.^ 0.! w.x.0.J.J.z.2.^ h.E ! ^ H.1 H J H H G P H ` ] z A G ] A H P I P I x.n j &.E =.K ! K 0.! =...t.&.J =.&.' J =.J ;.",
"r ~ z.h.H./ z.F x.x.w.E W Y.F M.J.Y.W ! W.3 H H ' A G G ' z ` ` ` A H H K ' H ] I t.f B p.J =.' t.=.' E J G r.K K J ' K J E J R ",
"f x.x.z.T.s.R.;.a.x.9.9.m.R m.h.x.D.Y.J.R.8 h H ] ] ` B A A A G H ' ] ` z G A ' H H t B E E =.t.=.K &.' J &.G E B B C N K =.J ;.",
"f ~ z.z.h.x.;.z.x.H.;.E J.H.H.) ) H.H.D.V.1 H H G ] z z B G s H ' H A H ` h ] G K P s B D R K K ' K =.=.G C C ;.' J C ' B 0.J &.",
"d s.E R h.@.&.' z.~ ;.E ~ J.J./ / h./ / W., S t.K H A ` H ] G G P A ] H ` l A ' K T.f j J C =.E t.! E &.` ` &.&.C &.;...J ;.E G ",
"q ! ^ ! x.r.&.' a.H &.x.! x./ / J.J.x.J.Y.; H ] H t.H S ' H ` P P ] H H A A H G H t.a c E B E J r.! r.r.x.' ..&.C C n J B C J O.",
"X 7 9 : 9 0 1 9 9 1 1 8 8 9 7 9 0 q q q q = = : : 1 , = 1 1 1 2 - - , 1 , , - > ; 9 : o 8 7 % & ; 0 0 6 6 8 , 6 6 8 ; 8 , 8 , q ",
"` ` ' ' &.w.' ' G ' t h ] H H L H K H G D K J G K K T K T K p.R 2 ] E ..K E =.E Q K 0.j.0.E Q ^ ^ Q ^ Q ] 1 A _ ' ] ` ' ] ' ' ] ",
"` ' ' ' ' w.K ` o.;.v a C _ J J R J T K J G J B J E J K T I ! p.9 J 2.&.E ! M z.z.Q R 8.&.Q ( Q Q Q ^ h.H.1 ' _ ` &.] w.] >.' ] ",
"` ] ` _ >.t.r.a.a.' v l G J J K J K @.C &.N C N J C J R &.E E 2.f C U Y 9.C V ..9.h.Q 9.E Q Q Q Q Q 2.R j., ` _ ` ` a.&.] ] ' ' ",
"] ] _ ' r.u.r.H t.] v z H J G J J J _ N V ` B V _ C C C R G E @.d Q U W Y.@.2.U 2.s.0.&.8.Q 9.E R R @.' a.1 ` ` ' ' w.w.t.t.y.` ",
"] T.r.>.z.H 0.p.J.;.a k C G K K J B N N g C B C J C J N C J E D f K.( W W m.E W p.&.R R 2.U R D C C R ..a.1 ' ] t.' r.r.x.R.' =.",
"r.] r.] J.;.! ! x.x.v j ` A C J B J C ` f ` C C ` B J d &.F D E s ( Q ) ^ Q Q h.p.N R ..C D s.;.R &.C &.j.1 w.u.r.r.t.t.] h.T.K ",
"r.t.t.r.a.0.H.x.=.! i l K ! D G J B j J G f J K G N ` l M m K E q ! p.h.^ ;.E ! x.` N ..` J ;.&.` `  .@.T., u.u.r.u.r.t.r.t.z.a.",
"- ; 1 1 6 1 8 0 8 8 9 $ ; 3 6 6 ; > & 3 6 % ; 5 > > > $ = ; ; q o 6 0 > 5 5 > 5 > & & $ 6 & 5 5 6 5 5 5 0 - - 1 9 1 8 6 1 8 8 6 "
};
