/* XPM */
static char *_644564574040[] = {
/* columns rows colors chars-per-pixel */
"64 64 246 2 ",
"   c #563B33",
".  c #6A3D30",
"X  c #58423B",
"o  c #68463A",
"O  c #764939",
"+  c #7B513C",
"@  c #584945",
"#  c #5B514E",
"$  c #5D5452",
"%  c #5E5856",
"&  c #634D46",
"*  c #6B4C42",
"=  c #774E41",
"-  c #685349",
";  c #6A534C",
":  c #7B5346",
">  c #73544B",
",  c #79574A",
"<  c #645552",
"1  c #645955",
"2  c #6B5A54",
"3  c #6A5A56",
"4  c #645D5B",
"5  c #745C54",
"6  c #7B5C52",
"7  c #725F5B",
"8  c #66615E",
"9  c #74625B",
"0  c #7D645B",
"q  c #5F6061",
"w  c #656262",
"e  c #6C6563",
"r  c #6D6967",
"t  c #6D6A6A",
"y  c #736662",
"u  c #796A65",
"i  c #726E6C",
"p  c #78716E",
"a  c #6F7071",
"s  c #747372",
"d  c #7B7674",
"f  c #7A7877",
"g  c #7B7A7A",
"h  c #844D3B",
"j  c #87543D",
"k  c #96553B",
"l  c #A6623E",
"z  c #864F40",
"x  c #845344",
"c  c #8A5644",
"v  c #835649",
"b  c #825B4D",
"n  c #8D5B4B",
"m  c #945543",
"M  c #9C5642",
"N  c #945945",
"B  c #9B5A45",
"V  c #955C4C",
"C  c #9B5D4B",
"Z  c #865E52",
"A  c #955F51",
"S  c #A25D46",
"D  c #A35E4A",
"F  c #89624E",
"G  c #98644A",
"H  c #9C614D",
"J  c #846256",
"K  c #8B6354",
"L  c #85655B",
"P  c #8C665B",
"I  c #8C6A5D",
"U  c #966354",
"Y  c #9B6454",
"T  c #936A55",
"R  c #9D6956",
"E  c #956658",
"W  c #9A6758",
"Q  c #956A5C",
"!  c #9D6B5C",
"~  c #9A715C",
"^  c #A46346",
"/  c #AB6845",
"(  c #A3644C",
")  c #AA644C",
"_  c #A56A4E",
"`  c #AC6C4C",
"'  c #B36C46",
"]  c #B56D4C",
"[  c #AE714D",
"{  c #B3734C",
"}  c #B97449",
"|  c #A26653",
" . c #A36B54",
".. c #AA6C53",
"X. c #AA6854",
"o. c #A26D5B",
"O. c #B36A55",
"+. c #AC7254",
"@. c #AB7656",
"#. c #A5725D",
"$. c #AA745B",
"%. c #AD795C",
"&. c #B57855",
"*. c #B37C5C",
"=. c #886C62",
"-. c #926D62",
";. c #9E6E61",
":. c #83716B",
">. c #8B736A",
",. c #9E7263",
"<. c #967669",
"1. c #93756C",
"2. c #847672",
"3. c #847975",
"4. c #8B7A74",
"5. c #817E7D",
"6. c #8B7D79",
"7. c #957E76",
"8. c #A16F61",
"9. c #A37364",
"0. c #AB7563",
"q. c #A57966",
"w. c #AB7A64",
"e. c #A47669",
"r. c #A97769",
"t. c #A57A6C",
"y. c #AA7C6C",
"u. c #B17D62",
"i. c #B47867",
"p. c #B27E6C",
"a. c #A57D71",
"s. c #AB7E71",
"d. c #B47F71",
"f. c #B6825D",
"g. c #88817E",
"h. c #94827C",
"j. c #9C847D",
"k. c #AB8166",
"l. c #AD806D",
"z. c #B48264",
"x. c #B3836C",
"c. c #B98768",
"v. c #B8856B",
"b. c #BC8B6C",
"n. c #AD8273",
"m. c #A98679",
"M. c #B38374",
"N. c #BA8674",
"B. c #B38975",
"V. c #BB8B74",
"C. c #B48679",
"Z. c #B88779",
"A. c #B48A7A",
"S. c #BB8B7B",
"D. c #BB917E",
"F. c #C28D75",
"G. c #C38E7A",
"H. c #CC8D7C",
"J. c #C59274",
"K. c #CA9272",
"L. c #C4927C",
"P. c #CB9878",
"I. c #7C7F80",
"U. c #7E8081",
"Y. c #858382",
"T. c #8A8583",
"R. c #8D8987",
"E. c #86898A",
"W. c #8C8C8C",
"Q. c #958985",
"!. c #928D8C",
"~. c #98908E",
"^. c #8F9293",
"/. c #949393",
"(. c #9B9594",
"). c #9C9897",
"_. c #959899",
"`. c #9C9B9B",
"'. c #A38B84",
"]. c #A88E86",
"[. c #B78E81",
"{. c #AA948B",
"}. c #BB9284",
"|. c #B79589",
" X c #BC9C8D",
".X c #A39996",
"XX c #A89A96",
"oX c #A29D9C",
"OX c #B79D94",
"+X c #BFA08B",
"@X c #A7A19F",
"#X c #BDA296",
"$X c #B4A39D",
"%X c #BCA39C",
"&X c #9FA0A0",
"*X c #A3A3A3",
"=X c #ABA6A4",
"-X c #A7A9AA",
";X c #ACABAB",
":X c #B3AAA6",
">X c #B8AAA5",
",X c #BCAAA4",
"<X c #B3ACAA",
"1X c #B5B0AF",
"2X c #BCB2AE",
"3X c #B7B6B5",
"4X c #BBB4B2",
"5X c #C49382",
"6X c #C49B8D",
"7X c #CA9A89",
"8X c #D09B89",
"9X c #C39E93",
"0X c #CBA08E",
"qX c #D4A589",
"wX c #C5A195",
"eX c #CBA294",
"rX c #C5A59B",
"tX c #CAA59A",
"yX c #C9AA9C",
"uX c #D6A997",
"iX c #D3AC9D",
"pX c #D9B19C",
"aX c #C5ACA4",
"sX c #CCACA2",
"dX c #C4AFA8",
"fX c #D3AEA2",
"gX c #CBB2A7",
"hX c #C3B3AC",
"jX c #CBB3AB",
"kX c #D3B2A6",
"lX c #D5B4AA",
"zX c #D9B9AA",
"xX c #C4BAB6",
"cX c #C9BAB4",
"vX c #D4BCB4",
"bX c #DABEB5",
"nX c #E2BBAD",
"mX c #DFC0AF",
"MX c #C9C1BE",
"NX c #D3C1BB",
"BX c #DBC3B9",
"VX c #E4C0AB",
"CX c #E3C5BB",
"ZX c #CAC6C4",
"AX c #D9CAC4",
"SX c #E4D5D0",
/* pixels */
"2 & 1 < 1 @ & - @ u 1 & o   1 9 , o o y -X~.6 , + o . o 5 u 4.0 , + G + > 9 o o * :.^.1.6 =.T ~ l j j G + O . o J > - > u 2 2 !.",
"e.Q Q ;.9.;.W ! 9.K v c V V H H %.f.f.:.3X,X( k / l S N U Q ,.! | ` } ' / l [ G A 6.*X|.d.p.z.&.f.} } } ] `  .X...M.S.r.9.M.x..X",
"s.;.9.C.a.,.9.9.e.y.d.e.9.9.o.#.#.l.x.1.&X~.` ) D N C V W ! 9.#.&.v.&.} { ` G R ! g.;XaXr. .+.+.[ [ ' ` ' / ^ H Y 9.n.V.L.S.C.@X",
"n.,.t.t.n.C.s.t.9.s.r.Y W U U Y ! ,.y.1._..X#.G U ! ! U t.y.r.w.{ f.b.[ @.@.` H A 6.`.xXo.( ( C B } &.^ ` ` _ H Y ! e.A.S.S.B.oX",
"t.W ;.s.C.e.,.e.n.t.U H U C Y | o.#.0.P R.$X[.e.r.s.s.y.t.t.y.%.R [ %.#.v.V.y.~ ;.6.;XOXo.X.D ) ^ ] ' S ) ' ` _ $.! R 1.n.A.[.).",
"8.W 9.y.8.W e.C.M.e.8.U N C | O._ q. .P (.,XS.S.M.M.Z.A.A.a.9.y.t.#.Q e.n.l.y.y.y.6.;X'. ./ ] ) ) O.D V C S B H H 1.q.k.B.B.1.!.",
"e.r.y.9.E ;.e.n.8.e.e.;.! 9.o.|  .! $.m.*XcXV.B.y.s.n.y.M.t.W 9.s.e.Y ,.t.n.y.n.s.=._.].| D ..^ ) ) B V Y H ! Y n ! n.B.B.B.0 !.",
"s.w.y.! ;.9.e.! W Q t.t.t.9.o.9.@._ %.1.`.2Xv. .;.9.Y ,.9.,.W W 9.,.! 9.<.k.r.C.M.1._.j.H H U o.| Y ;.;.| Y ! Y G w.m.B.D.t.: h.",
"5XP.Z.r.M.0.p.S.5X[.[.C.9.D o.o.0.v.%.I *XhXF.[ 0.s.y.C.n.y.0.o.w.x.x.y.n.n.n.}.M.1._.7.! 9.! ! U W e.C.t.! 0.9.! n.B.D.6X6XA.:.",
">XxX>XdX9XOXaX4X2XxXvXbXsXtXfXsXjXjXrX'.`.$XwXOXsXrXaX.XOXOXrXaX,XaX,X%XsXzXbXvXCX{.^.dXBXbXBXlXfXsXfXzXBXBXBXbXzXmXkXgX2XMX>X!.",
"g E._.a a w t g 5.^.f d 1 1 # a r f `.!.g R.^._.`.Y./.Y./././.g i 5./._.(.Y.g s g s f W.`.W.`.=XQ./._.5.=X<XY.p f Y.t s 5.e $ 8 ",
"O   > o * = * = 6 !.J . z h = v K 6 * * X ; - @   X 2 & < 2 3.).K o ; 0 5 > * * o 6 Z P I P -.y.,.;.L 5 !.ZX<.e.t.~ I 6 + + h c ",
"| C M C o.9.9.| =.R.e.D C C o.e.y.r.+.*.#.M.#.U E m V c x x 6.(.p.^ N e.n.! 9.y.x.5XV.L.F.N.S.F.G.V.d.K T.hXC.C.A.C.M.t.C ) ) C ",
"U C | 8.#.r.o.| Z R.;.V C V 8.A #.0.{ ..b.J.z.y.a.9.r.e.y.U 6.=Xt...t.9.9.e.n.B.V.K.V.L.F.Z.S.C.C.M.y.W Q.,XC.e.a.C.t.Y | ) k ( ",
"U A 9.C.x.k.%.i.Z Y.8.C C C 8.Y @. . .#.w.M.r.t.n.s.Z.S.A.9.4.(.B.M.x...! t.A.L.K.F.S.H.G.Z.V.B.9.s.t.W R.,Xe.U 9.;. .Y | ( D X.",
"o.o.0.v.G.V.v.0.=.oXs.Y o.A W O.{ [ *.0.w.S.M.C.C.C.d.[.M.x.1.=X}.x. ._ Y w.V.V.K.F.L.P.P.V.z.w.U Q e.Z p $XW  .0.#... .0.| D D ",
"W 0.%.*.b.L.v.G 2 (.[.$. .! ..+.@.*.f.$.,.M.C.N.Z.G.s.9.9.o.7.:Xx. ...*.R 0.v.c.N.V.P.J.J.c.@.| D Y e.E u XXY | 0.X.o.w.0.^ ( C ",
"o...v.F.c.b.l.U 9 *XrX .S +.{ %.z.z.x.k.e.n.n.n.s.x.q.Y Y U 4..Xt.V ! w.@.#.x.q.t.M.D.V.x.f.&.] / Y ! e.p Q.9.o.r.Y o.w...Y ( o.",
"9.#.N.K.v.y.! Y > `.]. .D ) ' $.w.w.v.x.y.N.C.n.n.M.#.( M c 4..X .B 9.t.G U R H t.S.V.w.#.+.` l N U t.e.4.{.s.s.M.H C ] ` %.w.0.",
"}.6XpXzXiXuXN.y.=.T.'...&.F.K.7XeXpXVXpXeX0XqX5XC.p.&.{ | C >..Xi.i.A.C.y.,.T ! y.S.r.e.0.u.$.X.0.M.V.e.~.>X XtXeXG.H.K.qXpXpXuX",
"hX4X4X4XxX<X$X%X].W.{.tXyXOXoX3XxX4X3X2XAXSXAXAXhXgXsXkXsXBXQ./.>XXXhXvXjXkXsXwX X9XA.|.{.{.OXOXaXlXrX#X!.:XdX=XoX!.:X:X=X!.$X2X",
"3.5.(.Y.f f f f W.E.T.s w 4 s W.T.g.g.Y.;X@XY.g e % w s % e 8 8 4 $ % w a oX<XoX(.(..X_.f f ^.E.E./.Y.g g s s w r < < 1 y p 9 9 ",
"m.E =.=.L * 5 > - = o O h 6 6 Z L =.I 6 `.$XI + h x h h h O : , x P K , o # ; 2 &   _.2 X & 9 2 - & o = > b = o . x n v ~ 1.k.1.",
"|.C.M.Q C N n n Y ( C | $.#.9.s.8.$.w.e.=XOX$.Y ! ! C D Y ! 9.! #.n.#.y.r.Y 9.;.W = T.o.N m k B k k H ^ Y ! Y ) D | R ! l.%.k.>.",
"wXF.y.9.C H C Y 0.! o.e.e.y.M.n.#.+.u.e.5.j.o.U A U | C Y e.e.,.e.e.,.9.C D o.9.#., (.A...| | ) | U ( D Y W Y C ) | Y ;.! 9.x.m.",
"|.y.r.U C H N C Y o.w.M.n.n.y.#.o.*.0.U 3.1.;.! U W W A ! e.m.B.n.C.a.e.Y D ..` ` F g.OXx.*.%.! o.W Y ..D |  .) C U W Y C Y o.=.",
"tXM.s.y.9. .H ! 9.y.t.e.e.,.9.%.#.w.x.~ oX].e.t.e.,.8.t.e.! k.t.,.n.n.m.e.....{ / T `.yXv.f.*.@.y.s.! ( ^ #.o._ U Y e.8.| D B b ",
"9XM.M.e.~ q.q.e.9.9.t.t.M.w.Y R #.z.v.T Y.'.! t.9.;.;.,.<.n.n.9.W ! y.e...{ &.' G J 3XpXc.z.[ _ t.e.W Y o.t.e.! w.M.,.! C C V I ",
"|.s.n.e.e.e.A.M.M.0.0.r.B.0.%.w.%.%.@.T W.'.,.n.e.;.! ! t.A.A.n.Y W o.8.| ( ' l ^ ~ ^.yXf.&./ ( 8.W 8.8.s.d.d.d.G.N.M.o.B V C =.",
"m.s.n.t.,.,.}.S.B.x.v.p.$.#.k.f.v.z._ 6 E.1.! l.e.,.e.Q r.B.A.k.#.o.8.9.U U H C H F E.{.@. ...H E 8.t.8.9.N.G.S.N.M.s.! C | m L ",
"a.A.}.B.l.w.}.5X5XtXuXtXL.P.J.V.L.7X7X1.g t.D.D.A.C.}.S.D.D.D.D.M.x.*.+.0.x.x.V.M.6 W. X7X6X5X5X5X9XzXiXtXfXlXnXiXiX9XS.i.X.B 5 ",
"aXzXbXzXcXgXvXvXBXvXAXZXMXAXBXSXNXhX(._.;XcXMXNXxXAXvXZXNXBXcXhXvXbXuX XrXdXdXcXhX$X_.3XMX.X=X*X).@X).;X4X<X:X3X4XZX4XaXaXrXrX'.",
"i s g 5.Y.g f Y.oX).T.t p R.s s i w 4 2 e i f f 3.g Y.Y.R.!.@XE._.U.q t f f r r e e < y u < ; < 2 :.:.h.@Xg.9 9 u g.8 e 5.s i f ",
"o * , 6 , , o o d Q.b ,.w.J O O c v O v -.Q ,.,.y.w.J -.=.0 Y.!.& o , > 0 F T j c z x n w.x.Q n.y.,.y.].-X#Xq.U v : : h +   . * ",
"y.w.#.! #.q.+.k !.|.v.S.M.B.0.9.W C U U s.5X5XG.V.w.;.A.Z.Q @X2XC.x.M.M.M.w.z.@.C W A ! ! 9.! ! W 9.9.4.!.|.o.C ..$...| | U 9.y.",
"e.! | C o.w.%.R R.+X+.v.M.y.y.! Y W W 8.e.S.G.N.o.U Y B.D.R p :XS.l.V.x.l.n.l.w.o.U Y W ,.! W H ! ! ! h.R.9X$.$.+.9.| `  .U ,.y.",
"9.Y Y Y 8.9.p.k.Y.m.@.k.0.o.! A ! ;.9.s.9.$.y.M.e.V ! s.C.U d 2XC.M.y.9.e.,.o.9.e.Y Y 8.t.8.! w.y.,.K Q.*X|.k.@.{ [ ` +.o.R y.9.",
"n.m.8.Q Q 9.M.a.R.|.t.,.W U A H Y ;.9.y.y.! E y.t.,.! s.e.<.g.=X[.s.e.e.t.9.Q e.s.U C 9.s.9.o.9.t.,.E h.;X Xf.+.` / ` ^ o. .0. .",
"e.q.o.Y 9.9.n.m.*X%Xl.n.e.C C 9.t.a.a.y.n.y.E 9.r.! ! e...~ ^.oXC.a.9.! s.M.e.9.s.W U 9.a.9.R e.s.t.;.4.*XB.[ &.` ` +.+. .9.R Y ",
"! Y H ! o.Y 9.h.;XhXM.M.s.U C Q e.a.t.o.0.x.y.9.! Y | | ^ K s Q.s.s.e.Y r.s.! W ;.9.y.a.M.y.o.R H H ! =.`.v.{ } } $.%.R R  . .#.",
"Y ! ;.W A 9.r.>.1XxXC.a.s.A M m ;.;.o.V W 8.8.A Y  .C N N v 5.{.s.e.s.y.M.A.M.9.;.M.d.t.t.9.w.0.Y C N I E.l.' } l } %.#.( [ f.R ",
"#.w.A.6XtXlXiXQ.W.4XzXyX9X5Xv.i.i.0.#.| 9.| C | 0.y.v.Z.G.j._.hXlXsXsXsXvXBXvXlXeXiXfXkXfX7X6XeX6Xp.y.=./.D.J.P.P.pXzXqXqXqXqX7X",
"OXaXhXZX3XoXxX.XE.1X<X;X)..X.XhXaX>XOXgX9X6X7X9X%X2X$X:X!.!.-X<X<X;X@XY.W.g ^./.1XAXcXZXZXAXbXcX4X,XhXXX`.NXcXxX>X3X3X@X@X2XMXNX",
"1 1 2 y 6.2.2.:.9 4 < e 2 1 < < 1 $ w i g 5.d a g % X ; > 4 s 2.2.y - > , 0 5 X y <XoX5.f R.Y.f e e d 4 $ f t t p 9 9 9 9 0 X 5.",
"! t.n.d.s.t.d.y.! E v x K T t.n.Q Z v o Y.7 * : : x | 0.M.e.r.-.e.e.,.9.y.C.M.e.I !.,Xt.-.P b b j k k h v v K K ~ @.b.b.b.J.~ h.",
"%.r.s.d.C.d.A.#.o.#.S | ! t.n.C.e.y.t.n R.C.;.o.| | o.u.M.M.M.n.s.a.,.e.,.t.,.q.Q T.>X5Xy.9.#.X.' / S ^ ! ..0.w.%.k.c.b.P.P.c.p ",
"u.C Y ;.C.A.s.Q R ( O.` R R 9.s.! W ! 7.(.s.D C ! ! 0.w.! W ! Q E 8.! 9.,.9.9.t.y.~.4XA.y.9.| C D C ! !  ._ R @.#.A.f.f.J.P.f.h.",
"o.C o.Q e.s.y.!  .O.} [ H  .e.E r.y.W 7.T.e.| o.q.o.| o.;.Q ! ~ y.W C #.#. .,.l.,.T.4XC.r.! ( B C Y ;.!  .k R @.f.f.f.c.b.b.~ h.",
"a.s.s.d.M.n.l.;. .] ] G Y ..Y Q n.y.Q 4._.|.9.! |  .#.0.e.s.t.w.C.o.D | X.C ;.C.d.3.:Xa.Q V W N Y U Y ! Y D ( D ] +.z.J.J.J.p.:.",
"|.Z.Z.G.J.%.%.U Y C S V ( D ^ o.,.C.n.:.W.'.M.p.#.#.k.y.! s.A.A.t.Y X.| ) R y.}.s.3..X9.W 8.;.C H C B H Y W C Y `  .B.J.b.b.N.6.",
"[.x.y.V.J.w.R C H B C D D ) ) ( V 9.s.h./.<.N.V.M.s.y.t.y.t.s.9.!  .| ^ _ #.t.n.W y XX .( W o.B C | U U Y 8.Y A Y o.z.z.V.F.d.XX",
"[.! ! e.#.q.o.C M S D D ^ D k M C C A 6.Q.s.b.N.S.C.M.M.s.y.Y N | Y |  .w.t.t.t.C 5 ].S m | W Y A D C B ( Y Y Y H  .$.w.x.N.i.Q.",
"fXtXlXkXfXiXyX7XH.5X5X8X7X8XF.8X}.M.p.Q.,XzXzXzXbXlXtX9X9XfXfX8XeXeX6X XtXsXwXwX5X7.=X5XZ.|.9XkXZ.i.i.i.M.G.G.N.s.0.u.c.P.7XC.2.",
"4X3X4X-X;X*XoXoXoX).~.*XY.f Q.~.<X:XXX(.*X*X*X^._.<X).`.!.5.`.`./.E.E.).<XMX2X<X4X;X^.!.<X&X1XZXxX>XcX2X<XxX<XcXAXvXlX#X$XxX$X.X",
"7 u 7.1.9 - X < u 5.R.5 . o .   2 2 & 5 - 2 4 9 ; 2 @ X &   ; T.5   & 2 r s s g w u y $ @ w y e w f g s t /.e s E.5.e $ $ $ @ $ ",
"d.C.v.V.0.M.M.! x Y.!.e.-.W W y.! U $.z.%.w.E U ! -.9.U C m , (.a.A V V n Q P E n z m j x v K -.b Z o > 3.oX-.b 6 6 b Z Z n n U ",
"t.M.N.y.l.V.c. .= !.`.-.Y 9.;.8.Y R  .+.+.$.#.Y r.C.M.9.C M v !.m.Y | ! r.b.r.w...| C C Y 8.e.t.s.y.Y V y oXy.8.M.8.,.l.t.,.q.#.",
"M.y.t.s.t.l.#.9.x 5.{.W | e.e.e.! #.;.+.} +.*.~ 9.y.M.0.C | v E.[.C W 8.8.! e.9.9.,.! Y ! ;.e.s.s.t.! V :.XXe.! s.;.Q l.e.R U ! ",
"s.n.9.8.t.t.;.M.W g.]...o.e.M.s.9.k.b.} } { [ #.9.0.o.! ,.s.K E. X#.s.Q A Y e.s.M.M.M.e.e.e.s.Z.C.s.9.E 6.<XC.s.t.t.t.l.#.R R ! ",
"r.b.t.9.s.C.t.Z.-.T.].) V e.n.w.%.f.&.&.*.*.z.z.u.w.o.U t.9.Q !.rXw.n.s.e.;.e.s.n.y.n.9.#.a.t.n.C.y.! E Q.<X|.M.s.C.C.C.k.#.R #.",
"#. .w.C.C.G.C.M.U 2.m.( A W y.z.@.` +.[ &.z.z.v.w.0.y.e.9.! P T.hXM.s.S.s.a.e.1.t.~ Q ! Y o.W ;.t.s.;.U p <X9Xd.s.M.V.D.l.,.e.W ",
"Y ! W a.s.t.C.d.T p #X_ | #.y.p.b.0.#.$.w.y.9.Q #.Y #.x.r.r.-.T.XXM.r.M.M.M.n.C.A.l.~ 9.Y o.9.e.o.! Y V :.`. XB.A.L.L.7X[.t.t.R ",
"o.e.9.9.n.y.e.y.Q 2.dX+.H Y t.V.b.V.l.t.M.S.d.e.o.U W l.s.M.t.2.@XB.y.N.N.G.5X}.B.l.x.s.i.y.d.s.8.0.0.e.:./.B.B.A.L.H.5X5XN.n.~ ",
"6X9X9X9XwXeXwXiX6XR.:XeXS.6XlXfXpXzXzXfXzXjXjXyXwXyXrXkXnXCXkXR.=XlXkXlXlXfXsXfXsXgXdXaX,X%XjXvXaXaXOXaX'.!.sXzXvXmXCXbXCXCXbXkX"
};
